<svg aria-hidden="true" style="position: absolute; width: 0; height: 0; overflow: hidden;" version="1.1" xmlns="http://www.w3.org/2000/svg" xmlns:xlink="http://www.w3.org/1999/xlink">
<defs>
<symbol id="icon-search" viewBox="0 0 32 32">
<path  d="M25.905 23.787l5.653 5.608c0.571 0.591 0.571 1.527 0 2.118-0.286 0.288-0.675 0.451-1.082 0.451s-0.796-0.162-1.082-0.451l-5.608-5.608c-5.681 4.556-13.933 3.878-18.794-1.546s-4.634-13.7 0.516-18.85 13.427-5.376 18.85-0.516c5.424 4.86 6.102 13.112 1.546 18.794zM4.571 15.239c0 5.891 4.776 10.667 10.667 10.667 2.829 0 5.542-1.124 7.543-3.124s3.124-4.714 3.124-7.543c0-5.891-4.776-10.667-10.667-10.667s-10.667 4.776-10.667 10.667z"></path>
</symbol>
<symbol id="icon-long-arrow" viewBox="0 0 84 32">
<path fill="none" stroke="#fff" stroke-width="4" stroke-miterlimit="4" stroke-linecap="round" stroke-linejoin="round" style="stroke: var(--color1, #fff)" d="M63.156 2l18.754 14-18.754 14"></path>
<path fill="none" stroke="#fff" stroke-width="4" stroke-miterlimit="4" stroke-linecap="round" stroke-linejoin="round" style="stroke: var(--color1, #fff)" d="M81.91 16h-79.035"></path>
</symbol>
<symbol id="icon-folder" viewBox="0 0 32 32">
<path  d="M2.392 29.992c-0.658 0-1.221-0.285-1.689-0.857s-0.703-1.257-0.703-2.059v-17.494c0-0.802 0.234-1.488 0.703-2.059s1.031-0.857 1.689-0.857h7.175l2.392 2.916h9.567c0.658 0 1.221 0.286 1.689 0.857s0.703 1.257 0.703 2.059v14.579c0 0.802-0.234 1.488-0.703 2.059s-1.031 0.857-1.689 0.857h-19.133zM2.392 9.582v17.494h19.133v-14.579h-10.553l-2.392-2.916h-6.188z"></path>
</symbol>
<symbol id="icon-howWorks1" viewBox="0 0 32 32">
<path fill="#a5fecb" style="fill: var(--color1, #a5fecb)" d="M32 16c0 8.837-7.163 16-16 16s-16-7.163-16-16c0-8.837 7.163-16 16-16s16 7.163 16 16z"></path>
<path fill="#5433ff" style="fill: var(--color2, #5433ff)" d="M24.481 8.85c-0.073-0.279-0.291-0.497-0.57-0.57-3.349-0.87-6.9 0.257-9.135 2.898l-0.892 1.059-2.084-0.503c-1.048-0.365-2.204 0.098-2.709 1.086l-1.76 3.12c-0.125 0.222-0.137 0.49-0.033 0.722s0.313 0.4 0.562 0.454l2.458 0.527c-0.208 0.634-0.357 1.286-0.444 1.947-0.032 0.246 0.052 0.494 0.228 0.669l2.48 2.48c0.15 0.15 0.353 0.234 0.566 0.234 0.023 0 0.046-0.001 0.070-0.003 0.676-0.061 1.344-0.192 1.993-0.392l0.515 2.402c0.053 0.249 0.222 0.457 0.454 0.562s0.5 0.092 0.722-0.032l3.124-1.762c0.902-0.548 1.347-1.616 1.1-2.643l-0.535-2.207 0.99-0.91c2.652-2.229 3.782-5.787 2.902-9.138zM9.258 15.778l1.245-2.208c0.16-0.311 0.536-0.443 0.856-0.3l1.374 0.333-0.52 0.617c-0.493 0.591-0.919 1.234-1.271 1.919l-1.683-0.361zM17.061 23.582l-0.344-1.604c0.696-0.347 1.345-0.783 1.931-1.296l0.595-0.547 0.323 1.332c0.086 0.337-0.047 0.691-0.332 0.89l-2.173 1.225zM20.525 16.784l-2.948 2.709c-1.167 1.009-2.606 1.65-4.136 1.843l-1.923-1.923c0.258-1.534 0.921-2.972 1.921-4.165l1.343-1.594c0.022-0.023 0.043-0.048 0.063-0.074l1.148-1.363c1.728-2.041 4.42-2.994 7.048-2.496 0.511 2.637-0.452 5.342-2.514 7.063zM18.587 13.053c0-0.663 0.537-1.2 1.2-1.2h-0c0.318 0 0.624 0.126 0.849 0.351s0.351 0.53 0.351 0.849c0 0.663-0.537 1.2-1.2 1.2s-1.2-0.537-1.2-1.2z"></path>
</symbol>
<symbol fill="none" xmlns="http://www.w3.org/2000/svg" viewBox="0 0 65 64" id="icon-large-enough">
<circle cx="32.5" cy="32" r="32" fill="#A5FECB"></circle>
<mask id="mask0_12_1148" maskUnits="userSpaceOnUse" x="11" y="13" width="41" height="40">
<rect x="11.5" y="13" width="40" height="40" fill="#D9D9D9"></rect>
</mask>
<g mask="url(#mask0_12_1148)">
<path d="M29.8335 43.5556C33.2224 43.5556 36.1066 42.3681 38.4863 39.9931C40.8659 37.6181 42.0557 34.7315 42.0557 31.3333C42.0557 27.9444 40.8659 25.0602 38.4863 22.6805C36.1066 20.3009 33.2224 19.1111 29.8335 19.1111C26.4354 19.1111 23.5488 20.3009 21.1737 22.6805C18.7987 25.0602 17.6112 27.9444 17.6112 31.3333C17.6112 34.7315 18.7987 37.6181 21.1737 39.9931C23.5488 42.3681 26.4354 43.5556 29.8335 43.5556ZM29.8335 38C27.7965 38 25.9238 37.4514 24.2155 36.3542C22.5071 35.2569 21.1668 33.8009 20.1946 31.9861C20.0742 31.7731 20.014 31.5556 20.014 31.3333C20.014 31.1111 20.0742 30.8935 20.1946 30.6805C21.1668 28.8843 22.5071 27.4329 24.2155 26.3264C25.9238 25.2199 27.7965 24.6667 29.8335 24.6667C31.8705 24.6667 33.7363 25.2176 35.4307 26.3195C37.1252 27.4213 38.4677 28.8657 39.4585 30.6528C39.5789 30.8657 39.639 31.0926 39.639 31.3333C39.639 31.5741 39.5789 31.8009 39.4585 32.0139C38.4677 33.8102 37.1252 35.2569 35.4307 36.3542C33.7363 37.4514 31.8705 38 29.8335 38ZM29.8335 35.5C31.3613 35.5 32.7641 35.1319 34.0418 34.3958C35.3196 33.6597 36.3196 32.6389 37.0418 31.3333C36.3196 30.0556 35.3196 29.0417 34.0418 28.2917C32.7641 27.5417 31.3613 27.1667 29.8335 27.1667C28.2779 27.1667 26.8613 27.5417 25.5835 28.2917C24.3057 29.0417 23.3057 30.0556 22.5835 31.3333C23.3057 32.6389 24.3057 33.6597 25.5835 34.3958C26.8613 35.1319 28.2779 35.5 29.8335 35.5ZM29.8335 33.5555C30.4354 33.5555 30.9562 33.3426 31.396 32.9167C31.8358 32.4907 32.0557 31.963 32.0557 31.3333C32.0557 30.7315 31.8358 30.2106 31.396 29.7708C30.9562 29.331 30.4354 29.1111 29.8335 29.1111C29.2039 29.1111 28.6761 29.331 28.2502 29.7708C27.8242 30.2106 27.6113 30.7315 27.6113 31.3333C27.6113 31.963 27.8242 32.4907 28.2502 32.9167C28.6761 33.3426 29.2039 33.5555 29.8335 33.5555ZM29.8335 46.3333C27.7502 46.3333 25.7988 45.9375 23.9793 45.1458C22.1599 44.3542 20.5766 43.2847 19.2293 41.9375C17.8821 40.5903 16.8127 39.0069 16.021 37.1875C15.2293 35.3681 14.8335 33.4167 14.8335 31.3333C14.8335 29.2778 15.2293 27.3403 16.021 25.5208C16.8127 23.7014 17.8821 22.1111 19.2293 20.75C20.5766 19.3889 22.1599 18.3125 23.9793 17.5208C25.7988 16.7292 27.7502 16.3333 29.8335 16.3333C31.8891 16.3333 33.8266 16.7292 35.646 17.5208C37.4654 18.3125 39.0557 19.3889 40.4168 20.75C41.7779 22.1111 42.8543 23.7014 43.646 25.5208C44.4377 27.3403 44.8335 29.2778 44.8335 31.3333C44.8335 33.1667 44.5279 34.8935 43.9168 36.5139C43.3057 38.1343 42.4585 39.6065 41.3752 40.9305L47.1668 46.75C47.4446 47.0278 47.5812 47.3519 47.5765 47.7222C47.5719 48.0926 47.4307 48.4167 47.153 48.6945C46.8752 48.963 46.5511 49.0972 46.1807 49.0972C45.8104 49.0972 45.4863 48.963 45.2085 48.6945L39.389 42.8889C38.065 43.9722 36.5928 44.8171 34.9724 45.4236C33.352 46.0301 31.6391 46.3333 29.8335 46.3333Z" fill="#5433FF"></path>
</g>
</symbol>
<symbol fill="none" xmlns="http://www.w3.org/2000/svg" viewBox="0 0 65 64" id="icon-medical">
<circle cx="32.5" cy="32" r="32" fill="#A5FECB"></circle>
<mask id="mask0_12_1156" maskUnits="userSpaceOnUse" x="12" y="12" width="41" height="40">
<rect x="12.5" y="12" width="40" height="40" fill="#D9D9D9"></rect>
</mask>
<g mask="url(#mask0_12_1156)">
<path d="M22.2224 47C21.8289 47 21.499 46.8664 21.2328 46.5993C20.9666 46.3321 20.8335 46.0011 20.8335 45.6062C20.8335 45.2114 20.9666 44.882 21.2328 44.6181C21.499 44.3542 21.8289 44.2222 22.2224 44.2222H29.389V40.2222H28.9724C26.7039 40.2222 24.7803 39.4329 23.2015 37.8542C21.6228 36.2755 20.8335 34.3519 20.8335 32.0833C20.8335 30.3959 21.2988 28.8606 22.2293 27.4775C23.1599 26.0944 24.4446 25.1019 26.0835 24.5C26.2316 23.4815 26.7247 22.6342 27.5627 21.9583C28.4006 21.2824 29.352 20.9722 30.4168 21.0278L29.9863 19.8194C29.8289 19.4306 29.834 19.072 30.0016 18.7439C30.1692 18.4158 30.4326 18.191 30.7918 18.0695L31.1946 17.9167L31.1668 17.7917C31.0187 17.3657 31.021 16.9745 31.1738 16.618C31.3266 16.2616 31.602 16.0139 32.0002 15.875C32.3983 15.7361 32.778 15.743 33.1391 15.8958C33.5002 16.0486 33.7826 16.3333 33.9863 16.75L34.0557 16.8889L34.3891 16.7778C34.7594 16.6389 35.1136 16.6505 35.4516 16.8125C35.7895 16.9745 36.0279 17.2315 36.1668 17.5833L39.8613 27.3472C40.0187 27.7361 40.0118 28.0972 39.8405 28.4305C39.6691 28.7639 39.4029 29 39.0418 29.1389L38.639 29.2778L38.7085 29.4305C38.8659 29.7824 38.8636 30.1458 38.7016 30.5208C38.5395 30.8958 38.2594 31.1574 37.8613 31.3055C37.4724 31.4444 37.0928 31.4398 36.7224 31.2917C36.352 31.1435 36.0789 30.8657 35.903 30.4583L35.8335 30.3055L35.4168 30.4445C35.0522 30.5833 34.6932 30.5733 34.3399 30.4143C33.9866 30.2554 33.753 29.9969 33.6391 29.6389L33.0835 28.1389C32.6668 28.5833 32.1784 28.9074 31.6182 29.1111C31.0581 29.3148 30.4724 29.3981 29.8613 29.3611C29.2131 29.3241 28.5835 29.1134 27.9724 28.7292C27.3613 28.3449 26.8798 27.8611 26.528 27.2777C25.5742 27.7407 24.8497 28.4074 24.3543 29.2778C23.8589 30.1481 23.6112 31.0833 23.6112 32.0833C23.6112 33.5833 24.1298 34.8519 25.1668 35.8889C26.2039 36.9259 27.4724 37.4445 28.9724 37.4445H41.6669C42.0604 37.4445 42.3902 37.578 42.6564 37.8452C42.9226 38.1123 43.0557 38.4433 43.0557 38.8382C43.0557 39.2331 42.9226 39.5625 42.6564 39.8264C42.3902 40.0903 42.0604 40.2222 41.6669 40.2222H33.8335V44.2222H42.778C43.1715 44.2222 43.5013 44.3558 43.7675 44.623C44.0337 44.8901 44.1668 45.2211 44.1668 45.616C44.1668 46.0109 44.0337 46.3403 43.7675 46.6042C43.5013 46.8681 43.1715 47 42.778 47H22.2224ZM35.528 28.0833L37.5002 27.3611L34.3335 19.0277L32.3335 19.75L35.528 28.0833ZM30.162 27.1389C30.7115 27.1389 31.1738 26.953 31.5488 26.5812C31.9238 26.2095 32.1113 25.7489 32.1113 25.1993C32.1113 24.6498 31.9254 24.1875 31.5537 23.8125C31.1819 23.4375 30.7213 23.25 30.1717 23.25C29.6221 23.25 29.1599 23.4359 28.7849 23.8076C28.4099 24.1794 28.2224 24.64 28.2224 25.1896C28.2224 25.7391 28.4082 26.2014 28.78 26.5764C29.1517 26.9514 29.6124 27.1389 30.162 27.1389Z" fill="#5433FF"></path>
</g>
</symbol>
<symbol fill="none" xmlns="http://www.w3.org/2000/svg" viewBox="0 0 65 64" id="icon-contribute">
<circle cx="32.5" cy="32" r="32" fill="#A5FECB"></circle>
<mask id="mask0_12_1164" maskUnits="userSpaceOnUse" x="12" y="12" width="41" height="40">
<rect x="12.5" y="12" width="40" height="40" fill="#D9D9D9"></rect>
</mask>
<g mask="url(#mask0_12_1164)">
<path d="M15.5554 45.3333C15.1619 45.3333 14.832 45.2002 14.5658 44.934C14.2996 44.6678 14.1665 44.338 14.1665 43.9445V38.6667C14.1665 37.8264 14.4657 37.1071 15.0641 36.5087C15.6624 35.9103 16.3818 35.6111 17.222 35.6111H22.9582C23.4608 35.6111 23.9383 35.7361 24.3907 35.9861C24.8431 36.2361 25.2221 36.5787 25.5276 37.0139C26.3332 38.1528 27.3494 39.037 28.5762 39.6667C29.8031 40.2963 31.1076 40.6111 32.4898 40.6111C33.9007 40.6111 35.2181 40.2963 36.4419 39.6667C37.6657 39.037 38.685 38.1528 39.4998 37.0139C39.8258 36.5842 40.2083 36.243 40.6471 35.9903C41.086 35.7375 41.5508 35.6111 42.0415 35.6111H47.7776C48.6179 35.6111 49.3372 35.9103 49.9356 36.5087C50.534 37.1071 50.8332 37.8264 50.8332 38.6667V43.9445C50.8332 44.338 50.7001 44.6678 50.4339 44.934C50.1677 45.2002 49.8378 45.3333 49.4443 45.3333H41.111C40.7174 45.3333 40.3876 45.2002 40.1214 44.934C39.8552 44.6678 39.7221 44.338 39.7221 43.9445V40.7639C38.7313 41.6065 37.6165 42.2546 36.3775 42.7083C35.1385 43.162 33.8459 43.3889 32.4998 43.3889C31.1573 43.3889 29.8702 43.1597 28.6387 42.7014C27.4072 42.243 26.2869 41.5926 25.2776 40.75V43.9445C25.2776 44.338 25.1445 44.6678 24.8783 44.934C24.6121 45.2002 24.2822 45.3333 23.8887 45.3333H15.5554ZM32.5009 38.3889C31.5002 38.3889 30.5415 38.1551 29.6248 37.6875C28.7082 37.2199 27.9582 36.5741 27.3748 35.75C26.9211 35.0926 26.3679 34.5671 25.7151 34.1736C25.0624 33.7801 24.3563 33.537 23.5971 33.4445C24.3378 32.5463 25.611 31.8495 27.4165 31.3542C29.2221 30.8588 30.9165 30.6111 32.4998 30.6111C34.0832 30.6111 35.7822 30.8588 37.597 31.3542C39.4119 31.8495 40.6896 32.5463 41.4304 33.4445C40.6804 33.537 39.9767 33.7801 39.3193 34.1736C38.6619 34.5671 38.1092 35.0908 37.6612 35.7446C37.0814 36.5815 36.3332 37.2315 35.4165 37.6944C34.4998 38.1574 33.528 38.3889 32.5009 38.3889ZM19.1633 33.1111C17.8506 33.1111 16.736 32.6517 15.8193 31.7328C14.9026 30.814 14.4443 29.6983 14.4443 28.3856C14.4443 27.073 14.9037 25.9583 15.8225 25.0417C16.7414 24.125 17.8571 23.6667 19.1698 23.6667C20.4824 23.6667 21.597 24.1261 22.5137 25.0449C23.4304 25.9638 23.8887 27.0795 23.8887 28.3922C23.8887 29.7048 23.4293 30.8194 22.5105 31.7361C21.5916 32.6528 20.4759 33.1111 19.1633 33.1111ZM45.8299 33.1111C44.5173 33.1111 43.4026 32.6517 42.486 31.7328C41.5693 30.814 41.111 29.6983 41.111 28.3856C41.111 27.073 41.5704 25.9583 42.4892 25.0417C43.4081 24.125 44.5238 23.6667 45.8364 23.6667C47.1491 23.6667 48.2637 24.1261 49.1804 25.0449C50.097 25.9638 50.5554 27.0795 50.5554 28.3922C50.5554 29.7048 50.096 30.8194 49.1771 31.7361C48.2583 32.6528 47.1425 33.1111 45.8299 33.1111ZM32.4966 28.1111C31.1839 28.1111 30.0693 27.6517 29.1526 26.7328C28.236 25.814 27.7776 24.6983 27.7776 23.3856C27.7776 22.073 28.237 20.9583 29.1559 20.0417C30.0747 19.125 31.1905 18.6667 32.5031 18.6667C33.8157 18.6667 34.9304 19.1261 35.847 20.0449C36.7637 20.9638 37.222 22.0795 37.222 23.3922C37.222 24.7048 36.7626 25.8194 35.8438 26.7361C34.9249 27.6528 33.8092 28.1111 32.4966 28.1111Z" fill="#5433FF"></path>
</g>
</symbol>
<symbol fill="none" xmlns="http://www.w3.org/2000/svg" viewBox="0 0 65 64" id="icon-difference">
<circle cx="32.5" cy="32" r="32" fill="#A5FECB"></circle>
<mask id="mask0_12_1172" maskUnits="userSpaceOnUse" x="13" y="12" width="41" height="40">
<rect x="13.5" y="12" width="40" height="40" fill="#D9D9D9"></rect>
</mask>
<g mask="url(#mask0_12_1172)">
<path d="M24.5 17C26.2434 17 27.9038 17.3634 29.4812 18.0903C31.0585 18.8171 32.3981 19.8148 33.5 21.0833C34.6019 19.8148 35.9415 18.8171 37.5188 18.0903C39.0962 17.3634 40.7566 17 42.5 17C45.5741 17 48.1759 18.0648 50.3055 20.1945C52.4352 22.3241 53.5 24.9259 53.5 28C53.5 29.1296 53.338 30.2639 53.0139 31.4028C52.6898 32.5417 52.2037 33.6759 51.5555 34.8056C51.2685 34.4074 50.9398 34.0602 50.5695 33.7639C50.1991 33.4676 49.7917 33.2223 49.3472 33.0278C49.8009 32.1667 50.1435 31.3195 50.375 30.4861C50.6065 29.6528 50.7223 28.8241 50.7223 28C50.7223 25.7037 49.9259 23.7593 48.3333 22.1667C46.7408 20.5741 44.7963 19.7778 42.5 19.7778C40.7315 19.7778 39.1505 20.2847 37.757 21.2986C36.3634 22.3125 34.9444 23.6852 33.5 25.4166C32.0556 23.6759 30.6366 22.3009 29.243 21.2916C27.8495 20.2824 26.2685 19.7778 24.5 19.7778C22.2037 19.7778 20.2593 20.5741 18.6667 22.1667C17.0741 23.7593 16.2778 25.7037 16.2778 28C16.2778 28.8241 16.3935 29.6528 16.625 30.4861C16.8565 31.3195 17.1991 32.1667 17.6528 33.0278C17.2083 33.2223 16.8009 33.4723 16.4305 33.7778C16.0602 34.0833 15.7315 34.4352 15.4445 34.8333C14.7963 33.7037 14.3102 32.5648 13.9862 31.4167C13.6621 30.2685 13.5 29.1296 13.5 28C13.5 24.9259 14.5648 22.3241 16.6945 20.1945C18.8241 18.0648 21.4259 17 24.5 17ZM14.8889 48.6667C14.4954 48.6667 14.1655 48.5336 13.8993 48.2674C13.6331 48.0012 13.5 47.6713 13.5 47.2778V46.3195C13.5 45.1812 14.0857 44.2694 15.257 43.5838C16.4282 42.8983 17.9722 42.5556 19.8889 42.5556C20.2315 42.5556 20.5625 42.5672 20.8819 42.5903C21.2014 42.6134 21.5139 42.6482 21.8194 42.6945C21.5417 43.1945 21.3357 43.7166 21.2014 44.2608C21.0671 44.805 21 45.3848 21 46V48.6667H14.8889ZM24.8889 48.6667C24.4954 48.6667 24.1655 48.5336 23.8993 48.2674C23.6331 48.0012 23.5 47.6713 23.5 47.2778V46C23.5 44.1944 24.4236 42.7292 26.2708 41.6042C28.1181 40.4792 30.5278 39.9167 33.5 39.9167C36.5 39.9167 38.9167 40.4792 40.75 41.6042C42.5833 42.7292 43.5 44.1944 43.5 46V47.2778C43.5 47.6713 43.3669 48.0012 43.1007 48.2674C42.8345 48.5336 42.5046 48.6667 42.1111 48.6667H24.8889ZM46 48.6667V46C46 45.3848 45.9306 44.805 45.7917 44.2608C45.6528 43.7166 45.4491 43.1919 45.1806 42.6869C45.4861 42.6364 45.7986 42.6019 46.1181 42.5833C46.4375 42.5648 46.7693 42.5556 47.1134 42.5556C49.0193 42.5556 50.5602 42.8983 51.7361 43.5838C52.912 44.2694 53.5 45.1812 53.5 46.3195V47.2778C53.5 47.6713 53.3669 48.0012 53.1007 48.2674C52.8345 48.5336 52.5046 48.6667 52.1111 48.6667H46ZM33.5 42.6944C31.4722 42.6944 29.7917 42.993 28.4583 43.5903C27.125 44.1875 26.4213 44.9167 26.3472 45.7778V45.8889H40.6528V45.75C40.5695 44.8981 39.8634 44.1759 38.5347 43.5833C37.206 42.9907 35.5278 42.6944 33.5 42.6944ZM19.8864 41.1667C19.0455 41.1667 18.3264 40.8673 17.7292 40.2684C17.1319 39.6696 16.8333 38.9496 16.8333 38.1087C16.8333 37.2677 17.1328 36.5486 17.7316 35.9514C18.3305 35.3542 19.0504 35.0556 19.8913 35.0556C20.7323 35.0556 21.4514 35.355 22.0486 35.9539C22.6458 36.5527 22.9444 37.2726 22.9444 38.1136C22.9444 38.9546 22.645 39.6737 22.0461 40.2709C21.4473 40.8681 20.7274 41.1667 19.8864 41.1667ZM47.1087 41.1667C46.2677 41.1667 45.5486 40.8673 44.9514 40.2684C44.3542 39.6696 44.0556 38.9496 44.0556 38.1087C44.0556 37.2677 44.355 36.5486 44.9539 35.9514C45.5527 35.3542 46.2726 35.0556 47.1136 35.0556C47.9545 35.0556 48.6736 35.355 49.2708 35.9539C49.8681 36.5527 50.1667 37.2726 50.1667 38.1136C50.1667 38.9546 49.8672 39.6737 49.2684 40.2709C48.6695 40.8681 47.9496 41.1667 47.1087 41.1667ZM33.5 38.6667C32.1111 38.6667 30.9306 38.1806 29.9583 37.2083C28.9861 36.2361 28.5 35.0556 28.5 33.6667C28.5 32.2778 28.9861 31.0972 29.9583 30.125C30.9306 29.1528 32.1111 28.6667 33.5 28.6667C34.8889 28.6667 36.0694 29.1528 37.0417 30.125C38.0139 31.0972 38.5 32.2778 38.5 33.6667C38.5 35.0556 38.0139 36.2361 37.0417 37.2083C36.0694 38.1806 34.8889 38.6667 33.5 38.6667ZM33.5 31.4444C32.8704 31.4444 32.3426 31.6574 31.9167 32.0833C31.4907 32.5093 31.2778 33.037 31.2778 33.6667C31.2778 34.2963 31.4907 34.8241 31.9167 35.25C32.3426 35.6759 32.8704 35.8889 33.5 35.8889C34.1296 35.8889 34.6574 35.6759 35.0833 35.25C35.5093 34.8241 35.7222 34.2963 35.7222 33.6667C35.7222 33.037 35.5093 32.5093 35.0833 32.0833C34.6574 31.6574 34.1296 31.4444 33.5 31.4444Z" fill="#5433FF"></path>
</g>
</symbol>


<symbol id="icon-howWorks2" viewBox="0 0 32 32">
<path fill="#a5fecb" style="fill: var(--color1, #a5fecb)" d="M32 16c0 8.837-7.163 16-16 16s-16-7.163-16-16c0-8.837 7.163-16 16-16s16 7.163 16 16z"></path>
<path fill="#5433ff" style="fill: var(--color2, #5433ff)" d="M20 11.2h-3.2v-1.024c0.492-0.284 0.797-0.808 0.8-1.376 0-0.884-0.716-1.6-1.6-1.6s-1.6 0.716-1.6 1.6c0.003 0.568 0.308 1.092 0.8 1.376v1.024h-3.2c-1.326 0-2.4 1.074-2.4 2.4v7.2c0 1.326 1.074 2.4 2.4 2.4h8c1.326 0 2.4-1.074 2.4-2.4v-7.2c0-1.326-1.074-2.4-2.4-2.4zM8 16.8c0.442 0 0.8 0.358 0.8 0.8v1.6c0 0.442-0.358 0.8-0.8 0.8s-0.8-0.358-0.8-0.8v-1.6c0-0.442 0.358-0.8 0.8-0.8zM13.6 17.6c0.442 0 0.8 0.358 0.8 0.8s-0.358 0.8-0.8 0.8c-0.442 0-0.8-0.358-0.8-0.8s0.358-0.8 0.8-0.8zM23.2 17.6v1.6c0 0.442 0.358 0.8 0.8 0.8s0.8-0.358 0.8-0.8v-1.6c0-0.442-0.358-0.8-0.8-0.8s-0.8 0.358-0.8 0.8zM20.8 20.8c0 0.442-0.358 0.8-0.8 0.8h-8c-0.442 0-0.8-0.358-0.8-0.8v-7.2c0-0.442 0.358-0.8 0.8-0.8h0.976l0.624 2.592c0.090 0.366 0.423 0.619 0.8 0.608h3.2c0.377 0.011 0.71-0.242 0.8-0.608l0.624-2.592h0.976c0.442 0 0.8 0.358 0.8 0.8v7.2zM17.6 18.4c0 0.442 0.358 0.8 0.8 0.8s0.8-0.358 0.8-0.8c0-0.442-0.358-0.8-0.8-0.8s-0.8 0.358-0.8 0.8zM16.976 14.4h-1.952l-0.4-1.6h2.752l-0.4 1.6z"></path>
</symbol>
<symbol id="icon-howWorks3" viewBox="0 0 32 32">
<path fill="#a5fecb" style="fill: var(--color1, #a5fecb)" d="M32 16c0 8.837-7.163 16-16 16s-16-7.163-16-16c0-8.837 7.163-16 16-16s16 7.163 16 16z"></path>
<path fill="#5433ff" style="fill: var(--color2, #5433ff)" d="M23.999 14.108c0.114 0.669-0.206 1.338-0.799 1.668v5.248c0.593 0.33 0.914 0.998 0.799 1.668s-0.638 1.193-1.308 1.308c-0.669 0.114-1.338-0.206-1.668-0.799h-5.248c-0.33 0.593-0.998 0.914-1.668 0.799s-1.193-0.638-1.308-1.308 0.206-1.338 0.799-1.668v-2.624h-2.624c-0.33 0.593-0.998 0.914-1.668 0.799s-1.193-0.638-1.308-1.308 0.206-1.338 0.799-1.668v-5.248c-0.593-0.33-0.914-0.998-0.799-1.668s0.639-1.193 1.308-1.308c0.669-0.114 1.338 0.206 1.668 0.799h5.248c0.33-0.593 0.998-0.914 1.668-0.799s1.193 0.639 1.308 1.308-0.206 1.338-0.799 1.668v2.624h2.624c0.33-0.593 0.998-0.914 1.668-0.799s1.193 0.639 1.308 1.308zM13.6 15.776c-0.492-0.284-0.797-0.808-0.8-1.376 0.007-0.718 0.492-1.343 1.185-1.529s1.425 0.112 1.791 0.729h1.024v-2.624c-0.241-0.136-0.44-0.335-0.576-0.576h-5.248c-0.136 0.241-0.335 0.44-0.576 0.576v5.248c0.241 0.136 0.44 0.335 0.576 0.576h2.624v-1.024zM16.8 15.2h-1.024c-0.136 0.241-0.335 0.44-0.576 0.576v1.024h1.024c0.136-0.241 0.335-0.44 0.576-0.576v-1.024zM21.024 21.6c0.136-0.241 0.335-0.44 0.576-0.576v-5.248c-0.241-0.136-0.44-0.335-0.576-0.576h-2.624v1.024c0.593 0.33 0.914 0.998 0.799 1.668s-0.638 1.193-1.308 1.308c-0.669 0.114-1.338-0.206-1.668-0.799h-1.024v2.624c0.241 0.136 0.44 0.335 0.576 0.576h5.248z"></path>
</symbol>
<symbol id="icon-howWorks4" viewBox="0 0 32 32">
<path fill="#a5fecb" style="fill: var(--color1, #a5fecb)" d="M32 16c0 8.837-7.163 16-16 16s-16-7.163-16-16c0-8.837 7.163-16 16-16s16 7.163 16 16z"></path>
<path fill="#5433ff" style="fill: var(--color2, #5433ff)" d="M23.2 10.4h-2.4v-0.8c0-0.442-0.358-0.8-0.8-0.8h-8c-0.442 0-0.8 0.358-0.8 0.8v0.8h-2.4c-0.442 0-0.8 0.358-0.8 0.8v2.4c0 1.767 1.433 3.2 3.2 3.2h1.232c0.724 0.807 1.699 1.346 2.768 1.528v1.672h-0.8c-1.326 0-2.4 1.074-2.4 2.4v1.6c0 0.442 0.358 0.8 0.8 0.8h6.4c0.442 0 0.8-0.358 0.8-0.8v-1.6c0-1.326-1.074-2.4-2.4-2.4h-0.8v-1.672c1.069-0.182 2.044-0.721 2.768-1.528h1.232c1.767 0 3.2-1.433 3.2-3.2v-2.4c0-0.442-0.358-0.8-0.8-0.8zM11.2 15.2c-0.884 0-1.6-0.716-1.6-1.6v-1.6h1.6v1.6c0.002 0.545 0.096 1.086 0.28 1.6h-0.28zM18.4 22.4v0.8h-4.8v-0.8c0-0.442 0.358-0.8 0.8-0.8h3.2c0.442 0 0.8 0.358 0.8 0.8zM19.2 13.6c0 1.767-1.433 3.2-3.2 3.2s-3.2-1.433-3.2-3.2v-3.2h6.4v3.2zM20.8 15.2h-0.28c0.184-0.514 0.278-1.055 0.28-1.6v-1.6h1.6v1.6c0 0.884-0.716 1.6-1.6 1.6z"></path>
</symbol>
<symbol id="icon-send" viewBox="0 0 22 32">
<path  d="M12.144 6.407l-0.48 0.464c-0.303 0.3-0.473 0.709-0.473 1.136s0.17 0.836 0.473 1.136c0.3 0.303 0.709 0.473 1.136 0.473s0.836-0.17 1.136-0.473l3.2-3.2c0.146-0.152 0.26-0.332 0.336-0.528 0.16-0.39 0.16-0.826 0-1.216-0.076-0.196-0.19-0.376-0.336-0.528l-3.2-3.2c-0.627-0.627-1.645-0.627-2.272 0s-0.627 1.645 0 2.272l0.48 0.464h-5.744c-0.884 0-1.6 0.716-1.6 1.6s0.716 1.6 1.6 1.6h5.744zM4.8 12.807c-2.651 0-4.8 2.149-4.8 4.8v8c0 2.651 2.149 4.8 4.8 4.8h12.8c2.651 0 4.8-2.149 4.8-4.8v-8c0-2.651-2.149-4.8-4.8-4.8h-12.8zM12.32 20.615c-0.622 0.61-1.618 0.61-2.24 0l-4.608-4.608h11.456l-4.608 4.608zM19.2 25.607c0 0.884-0.716 1.6-1.6 1.6h-12.8c-0.884 0-1.6-0.716-1.6-1.6v-7.344l4.608 4.592c0.89 0.915 2.115 1.429 3.392 1.424 1.273-0.001 2.493-0.508 3.392-1.408l4.608-4.608v7.344z"></path>
</symbol>
<symbol id="icon-alert-triangle" viewBox="0 0 32 32">
<path fill="none" stroke-width="2" stroke-miterlimit="4" stroke-linecap="round" stroke-linejoin="round"  d="M13.72 5.147l-11.293 18.853c-0.233 0.403-0.356 0.86-0.357 1.326s0.119 0.924 0.35 1.328c0.231 0.405 0.563 0.742 0.964 0.978s0.857 0.363 1.323 0.368h22.587c0.466-0.005 0.922-0.132 1.323-0.368s0.734-0.573 0.964-0.978c0.231-0.404 0.351-0.862 0.35-1.328s-0.125-0.923-0.357-1.326l-11.293-18.853c-0.238-0.392-0.572-0.716-0.972-0.941s-0.85-0.343-1.308-0.343c-0.458 0-0.909 0.118-1.308 0.343s-0.734 0.549-0.972 0.941v0z"></path>
<path fill="none"  stroke-width="2" stroke-miterlimit="4" stroke-linecap="round" stroke-linejoin="round"  d="M16 22.667h0.013"></path>
<path fill="none"  stroke-width="2" stroke-miterlimit="4" stroke-linecap="round" stroke-linejoin="round"  d="M16 12v5.333"></path>
</symbol>
<symbol id="icon-check" viewBox="0 0 32 32">
<path fill="none"  stroke-width="2" stroke-miterlimit="4" stroke-linecap="round" stroke-linejoin="round"  d="M26.667 8l-14.667 14.667-6.667-6.667"></path>
</symbol>
<symbol id="icon-Eye" viewBox="0 0 32 32">
<path fill="none"  stroke-width="2" stroke-miterlimit="4" stroke-linecap="round" stroke-linejoin="round" d="M1.333 16c0 0 5.333-10.667 14.667-10.667s14.667 10.667 14.667 10.667c0 0-5.333 10.667-14.667 10.667s-14.667-10.667-14.667-10.667z"></path>
<path fill="none"  stroke-width="2" stroke-miterlimit="4" stroke-linecap="round" stroke-linejoin="round"  d="M16 20c2.209 0 4-1.791 4-4s-1.791-4-4-4c-2.209 0-4 1.791-4 4s1.791 4 4 4z"></path>
</symbol>
<symbol id="icon-Eye-off" viewBox="0 0 32 32">
<path d="M0.626 0.626c0.391-0.391 1.024-0.391 1.414 0l11.836 11.836c0 0 0-0 0 0 0.002 0.002 0.005 0.004 0.007 0.007 0 0 0-0 0 0l5.648 5.648c0 0 0-0 0 0 0.002 0.002 0.005 0.004 0.007 0.007 0 0-0-0 0 0l11.836 11.836c0.391 0.391 0.391 1.024 0 1.414s-1.024 0.391-1.414 0l-6.148-6.148c-2.304 1.544-5.010 2.395-7.796 2.44l-0.016 0c-5.066 0-8.979-2.893-11.563-5.649-1.301-1.388-2.295-2.772-2.965-3.808-0.335-0.519-0.59-0.953-0.763-1.261-0.086-0.154-0.152-0.276-0.198-0.361-0.023-0.043-0.040-0.076-0.052-0.1l-0.014-0.028-0.006-0.011c-0-0-0.001-0.002 0.894-0.449l-0.894 0.447c-0.145-0.291-0.14-0.634 0.013-0.92 1.546-2.881 3.628-5.437 6.131-7.53l-5.957-5.957c-0.391-0.391-0.391-1.024 0-1.414zM8.003 9.417c-2.231 1.838-4.105 4.070-5.53 6.587 0.155 0.274 0.382 0.659 0.68 1.12 0.622 0.964 1.545 2.246 2.744 3.525 2.414 2.575 5.832 5.014 10.096 5.017 2.264-0.039 4.466-0.694 6.374-1.887l-3.59-3.59c-0.263 0.185-0.545 0.345-0.841 0.477-0.613 0.273-1.275 0.42-1.947 0.432s-1.338-0.112-1.961-0.363c-0.623-0.251-1.188-0.626-1.663-1.101s-0.849-1.040-1.101-1.663c-0.251-0.623-0.375-1.289-0.363-1.961s0.159-1.333 0.432-1.947c0.132-0.296 0.292-0.577 0.477-0.841l-3.807-3.807zM13.26 14.675c-0.036 0.067-0.069 0.135-0.1 0.204-0.164 0.368-0.252 0.765-0.259 1.168s0.067 0.803 0.218 1.177c0.151 0.374 0.375 0.713 0.66 0.998s0.624 0.509 0.998 0.66c0.374 0.151 0.774 0.225 1.177 0.218s0.8-0.095 1.168-0.259c0.069-0.031 0.138-0.065 0.204-0.101l-4.065-4.065zM15.998 6.333c-0.865-0.002-1.727 0.097-2.57 0.294-0.538 0.126-1.076-0.208-1.202-0.746s0.208-1.076 0.746-1.202c0.993-0.232 2.009-0.349 3.029-0.346 5.066 0 8.978 2.893 11.562 5.649 1.301 1.388 2.295 2.772 2.965 3.808 0.335 0.519 0.59 0.953 0.763 1.261 0.087 0.154 0.152 0.276 0.198 0.361 0.023 0.043 0.040 0.076 0.052 0.1l0.014 0.028 0.004 0.008 0.001 0.003c0 0 0.001 0.002-0.894 0.449l-0.882-0.471c-0.084 0.157-0.17 0.313-0.257 0.468-0.155-0.274-0.383-0.66-0.68-1.121-0.623-0.964-1.545-2.246-2.744-3.525-2.416-2.577-5.837-5.017-10.104-5.017h-0.002zM29.528 15.997c-0.721 1.279-1.56 2.489-2.506 3.613-0.356 0.423-0.301 1.053 0.121 1.409s1.053 0.301 1.409-0.121c1.15-1.367 2.155-2.85 2.997-4.426 0.153-0.286 0.158-0.629 0.013-0.919l-0.894 0.447c-0.894 0.447-0.894 0.447-0.894 0.448l-0.002-0.003-0.009-0.018c-0.009-0.017-0.022-0.043-0.041-0.079-0.038-0.071-0.095-0.178-0.173-0.316-0.007-0.011-0.013-0.023-0.020-0.035z"></path>
</symbol>
<symbol id="icon-Check" viewBox="0 0 43 32">
<path  d="M41.972 0.694c0.926 0.926 0.926 2.427 0 3.352l-26.074 26.074c-0.444 0.445-1.047 0.694-1.676 0.694s-1.232-0.25-1.676-0.694l-11.852-11.852c-0.926-0.926-0.926-2.427 0-3.352s2.427-0.926 3.352 0l10.176 10.176 24.398-24.398c0.926-0.926 2.427-0.926 3.352 0z"></path>
</symbol>
<symbol id="icon-Apple" viewBox="0 0 33 32">
<path d="M29.041 24.565c-0.464 1.071-1.013 2.058-1.649 2.964-0.867 1.236-1.577 2.092-2.124 2.567-0.848 0.78-1.757 1.179-2.73 1.202-0.699 0-1.541-0.199-2.521-0.602-0.984-0.401-1.888-0.6-2.714-0.6-0.867 0-1.797 0.199-2.791 0.6-0.996 0.403-1.799 0.613-2.412 0.634-0.933 0.040-1.863-0.371-2.791-1.234-0.592-0.517-1.334-1.403-2.221-2.658-0.953-1.34-1.736-2.894-2.349-4.666-0.657-1.914-0.986-3.767-0.986-5.561 0-2.055 0.444-3.828 1.334-5.313 0.699-1.193 1.629-2.134 2.793-2.825s2.422-1.043 3.776-1.066c0.741 0 1.713 0.229 2.921 0.68 1.204 0.452 1.977 0.681 2.317 0.681 0.253 0 1.113-0.268 2.569-0.802 1.377-0.496 2.539-0.701 3.492-0.62 2.58 0.208 4.518 1.225 5.808 3.058-2.308 1.398-3.449 3.356-3.426 5.869 0.021 1.957 0.731 3.585 2.126 4.878 0.632 0.6 1.338 1.064 2.124 1.393-0.17 0.494-0.35 0.967-0.541 1.422zM23.124 1.28c0 1.534-0.56 2.966-1.677 4.291-1.348 1.576-2.978 2.486-4.746 2.343-0.023-0.184-0.036-0.378-0.036-0.581 0-1.472 0.641-3.048 1.779-4.336 0.568-0.652 1.291-1.195 2.167-1.627 0.875-0.426 1.702-0.662 2.48-0.702 0.023 0.205 0.032 0.41 0.032 0.613v0z"></path>
</symbol>
<symbol id="icon-Google" viewBox="0 0 32 32">
<path fill="#4285f4" style="fill: var(--color1, #4285f4)" d="M31.36 16.363c0-1.135-0.102-2.225-0.291-3.273h-15.069v6.189h8.611c-0.371 2-1.498 3.695-3.193 4.829v4.015h5.171c3.025-2.785 4.771-6.887 4.771-11.76z"></path>
<path fill="#34a853" style="fill: var(--color2, #34a853)" d="M16 32c4.32 0 7.942-1.433 10.589-3.876l-5.171-4.015c-1.433 0.96-3.265 1.527-5.418 1.527-4.167 0-7.695-2.815-8.953-6.596h-5.345v4.145c2.633 5.229 8.044 8.815 14.298 8.815z"></path>
<path fill="#fbbc05" style="fill: var(--color3, #fbbc05)" d="M7.047 19.040c-0.32-0.96-0.502-1.985-0.502-3.040s0.182-2.080 0.502-3.040v-4.145h-5.345c-1.084 2.16-1.702 4.604-1.702 7.185s0.618 5.025 1.702 7.185l5.345-4.145z"></path>
<path fill="#ea4335" style="fill: var(--color4, #ea4335)" d="M16 6.364c2.349 0 4.458 0.807 6.116 2.393l4.589-4.589c-2.771-2.582-6.393-4.167-10.706-4.167-6.255 0-11.665 3.585-14.298 8.815l5.345 4.145c1.258-3.782 4.785-6.596 8.953-6.596z"></path>
</symbol>
<symbol id="icon-Microsoft" viewBox="0 0 34 32">
<path fill="#f25022" style="fill: var(--color5, #f25022)" d="M16 1.524h-13.714v13.714h13.714v-13.714z"></path>
<path fill="#00a4ef" style="fill: var(--color6, #00a4ef)" d="M16 16.762h-13.714v13.714h13.714v-13.714z"></path>
<path fill="#7fba00" style="fill: var(--color7, #7fba00)" d="M31.238 1.524h-13.714v13.714h13.714v-13.714z"></path>
<path fill="#ffb900" style="fill: var(--color8, #ffb900)" d="M31.238 16.762h-13.714v13.714h13.714v-13.714z"></path>
</symbol>
<symbol id="icon-close" viewBox="0 0 32 32">
<path fill="#fff" style="fill: var(--color1, #fff)" d="M32 16c0 8.837-7.163 16-16 16s-16-7.163-16-16c0-8.837 7.163-16 16-16s16 7.163 16 16z"></path>
<path fill="none" stroke="#01021d" stroke-width="2.1333" stroke-miterlimit="4" stroke-linecap="round" stroke-linejoin="round" style="stroke: var(--color2, #01021d)" d="M9.6 9.6l12.8 12.8"></path>
<path fill="none" stroke="#01021d" stroke-width="2.1333" stroke-miterlimit="4" stroke-linecap="round" stroke-linejoin="round" style="stroke: var(--color2, #01021d)" d="M9.6 22.4l12.8-12.8"></path>
</symbol>

<symbol id="icon-plus" viewBox="0 0 32 32">
<path  d="M16 25.334c-0.378 0-0.706-0.139-0.983-0.417s-0.417-0.602-0.417-0.973v-6.544h-6.544c-0.371 0-0.695-0.139-0.973-0.417s-0.417-0.606-0.417-0.983c0-0.378 0.139-0.706 0.417-0.983s0.602-0.417 0.973-0.417h6.544v-6.544c0-0.371 0.139-0.695 0.417-0.973s0.606-0.417 0.983-0.417c0.378 0 0.706 0.139 0.983 0.417s0.417 0.602 0.417 0.973v6.544h6.544c0.371 0 0.695 0.139 0.973 0.417s0.417 0.606 0.417 0.983-0.139 0.706-0.417 0.983c-0.278 0.278-0.602 0.417-0.973 0.417h-6.544v6.544c0 0.371-0.139 0.695-0.417 0.973s-0.606 0.417-0.983 0.417z"></path>
</symbol>
<symbol id="icon-close-modal" viewBox="0 0 29 32">
<path fill="#f0f0f0" style="fill: var(--color1, #f0f0f0)" d="M29.257 16.276c0 8.525-6.549 15.436-14.629 15.436s-14.629-6.911-14.629-15.436c0-8.525 6.549-15.436 14.629-15.436s14.629 6.911 14.629 15.436z"></path>
<path fill="none" stroke="#01021d" stroke-width="1.8286" stroke-miterlimit="4" stroke-linecap="round" stroke-linejoin="round" style="stroke: var(--color2, #01021d)" d="M8.777 10.102l11.703 12.349"></path>
<path fill="none" stroke="#01021d" stroke-width="1.8286" stroke-miterlimit="4" stroke-linecap="round" stroke-linejoin="round" style="stroke: var(--color2, #01021d)" d="M8.777 22.451l11.703-12.349"></path>
</symbol>
<symbol id="icon-imagesmode" viewBox="0 0 33 32">
<path fill="#51647a" style="fill: var(--color3, #51647a)" d="M7.333 29.333c-1.111 0-2.056-0.389-2.833-1.167s-1.167-1.722-1.167-2.833v-18.667c0-1.111 0.389-2.056 1.167-2.833s1.722-1.167 2.833-1.167h18.667c1.111 0 2.056 0.389 2.833 1.167s1.167 1.722 1.167 2.833v18.667c0 1.111-0.389 2.056-1.167 2.833s-1.722 1.167-2.833 1.167h-18.667zM7.333 26.667h18.667c0.378 0 0.694-0.128 0.95-0.383s0.383-0.572 0.383-0.95v-18.667c0-0.378-0.128-0.694-0.383-0.95s-0.572-0.383-0.95-0.383h-18.667c-0.378 0-0.694 0.128-0.95 0.383s-0.383 0.572-0.383 0.95v18.667c0 0.378 0.128 0.694 0.383 0.95s0.572 0.383 0.95 0.383zM8.667 24l5.333-5.333 2.4 2.367 2.933-3.7 5.333 6.667h-16zM11.333 13.333c-0.733 0-1.361-0.261-1.883-0.783s-0.783-1.15-0.783-1.883c0-0.733 0.261-1.361 0.783-1.883s1.15-0.783 1.883-0.783c0.733 0 1.361 0.261 1.883 0.783s0.783 1.15 0.783 1.883-0.261 1.361-0.783 1.883c-0.522 0.522-1.15 0.783-1.883 0.783z"></path>
</symbol>
<symbol id="icon-help" viewBox="0 0 32 32">
<path  d="M15.933 24c0.467 0 0.861-0.161 1.183-0.483s0.483-0.717 0.483-1.183c0-0.467-0.161-0.861-0.483-1.183s-0.717-0.483-1.183-0.483c-0.467 0-0.861 0.161-1.183 0.483s-0.483 0.717-0.483 1.183c0 0.467 0.161 0.861 0.483 1.183s0.717 0.483 1.183 0.483zM14.733 18.867h2.467c0-0.733 0.083-1.311 0.25-1.733s0.639-1 1.417-1.733c0.578-0.578 1.033-1.128 1.367-1.65s0.5-1.15 0.5-1.883c0-1.244-0.456-2.2-1.367-2.867s-1.989-1-3.233-1c-1.267 0-2.294 0.333-3.083 1s-1.339 1.467-1.65 2.4l2.2 0.867c0.111-0.4 0.361-0.833 0.75-1.3s0.983-0.7 1.783-0.7c0.711 0 1.244 0.194 1.6 0.583s0.533 0.817 0.533 1.283c0 0.444-0.133 0.861-0.4 1.25s-0.6 0.75-1 1.083c-0.978 0.867-1.578 1.522-1.8 1.967s-0.333 1.256-0.333 2.433zM16 29.333c-1.844 0-3.578-0.35-5.2-1.050s-3.033-1.65-4.233-2.85c-1.2-1.2-2.15-2.611-2.85-4.233s-1.050-3.356-1.050-5.2c0-1.844 0.35-3.578 1.050-5.2s1.65-3.033 2.85-4.233c1.2-1.2 2.611-2.15 4.233-2.85s3.356-1.050 5.2-1.050c1.844 0 3.578 0.35 5.2 1.050s3.033 1.65 4.233 2.85c1.2 1.2 2.15 2.611 2.85 4.233s1.050 3.356 1.050 5.2c0 1.844-0.35 3.578-1.050 5.2s-1.65 3.033-2.85 4.233c-1.2 1.2-2.611 2.15-4.233 2.85s-3.356 1.050-5.2 1.050z"></path>
</symbol>
<symbol id="icon-Mastercard" viewBox="0 0 47 32">
<path fill="#fff" stroke="#d9d9d9" stroke-width="1.3333" stroke-miterlimit="4" stroke-linecap="butt" stroke-linejoin="miter" style="fill: var(--color1, #fff); stroke: var(--color2, #d9d9d9)" d="M5.333 0.667h36c2.577 0 4.667 2.089 4.667 4.667v21.333c0 2.577-2.089 4.667-4.667 4.667h-36c-2.577 0-4.667-2.089-4.667-4.667v-21.333c0-2.577 2.089-4.667 4.667-4.667z"></path>
<path fill="#ed0006" style="fill: var(--color5, #ed0006)" d="M23.667 22.876c-1.589 1.371-3.65 2.199-5.902 2.199-5.025 0-9.098-4.121-9.098-9.204s4.073-9.204 9.098-9.204c2.252 0 4.313 0.828 5.902 2.199 1.589-1.371 3.65-2.199 5.902-2.199 5.025 0 9.098 4.121 9.098 9.204s-4.073 9.204-9.098 9.204c-2.252 0-4.313-0.828-5.902-2.199z"></path>
<path fill="#f9a000" style="fill: var(--color6, #f9a000)" d="M23.667 22.876c1.956-1.688 3.197-4.2 3.197-7.005s-1.24-5.317-3.197-7.005c1.589-1.371 3.65-2.199 5.902-2.199 5.025 0 9.098 4.121 9.098 9.204s-4.073 9.204-9.098 9.204c-2.252 0-4.313-0.828-5.902-2.199z"></path>
<path fill="#ff5e00" style="fill: var(--color7, #ff5e00)" d="M23.667 8.866c1.956 1.688 3.197 4.2 3.197 7.005s-1.241 5.317-3.197 7.005c-1.956-1.688-3.197-4.2-3.197-7.005s1.241-5.317 3.197-7.005z"></path>
</symbol>
<symbol id="icon-Visa" viewBox="0 0 47 32">
<path fill="#fff" stroke="#d9d9d9" stroke-width="1.3333" stroke-miterlimit="4" stroke-linecap="butt" stroke-linejoin="miter" style="fill: var(--color1, #fff); stroke: var(--color2, #d9d9d9)" d="M5.333 0.667h36c2.577 0 4.667 2.089 4.667 4.667v21.333c0 2.577-2.089 4.667-4.667 4.667h-36c-2.577 0-4.667-2.089-4.667-4.667v-21.333c0-2.577 2.089-4.667 4.667-4.667z"></path>
<path fill="#172b85" style="fill: var(--color4, #172b85)" d="M14.167 21.678h-2.827l-2.12-8.088c-0.101-0.372-0.314-0.701-0.629-0.856-0.784-0.39-1.649-0.7-2.591-0.856v-0.311h4.554c0.629 0 1.1 0.468 1.179 1.011l1.1 5.834 2.826-6.845h2.749l-4.24 10.111zM19.978 21.678h-2.67l2.199-10.111h2.67l-2.199 10.111zM25.631 14.368c0.079-0.545 0.55-0.856 1.1-0.856 0.864-0.078 1.806 0.078 2.591 0.466l0.471-2.177c-0.786-0.311-1.65-0.468-2.434-0.468-2.591 0-4.477 1.401-4.477 3.344 0 1.479 1.336 2.255 2.278 2.723 1.020 0.466 1.413 0.778 1.334 1.244 0 0.7-0.786 1.011-1.57 1.011-0.943 0-1.886-0.233-2.749-0.623l-0.471 2.178c0.943 0.388 1.963 0.545 2.906 0.545 2.906 0.077 4.711-1.322 4.711-3.423 0-2.645-3.691-2.8-3.691-3.966zM38.667 21.678l-2.12-10.111h-2.277c-0.471 0-0.943 0.311-1.1 0.778l-3.926 9.333h2.749l0.549-1.477h3.377l0.314 1.477h2.434zM34.662 14.289l0.784 3.811h-2.199l1.414-3.811z"></path>
</symbol>
<symbol id="icon-DinersClub" viewBox="0 0 47 32">
<path fill="#fff" stroke="#d9d9d9" stroke-width="1.3333" stroke-miterlimit="4" stroke-linecap="butt" stroke-linejoin="miter" style="fill: var(--color1, #fff); stroke: var(--color2, #d9d9d9)" d="M5.333 0.667h36c2.577 0 4.667 2.089 4.667 4.667v21.333c0 2.577-2.089 4.667-4.667 4.667h-36c-2.577 0-4.667-2.089-4.667-4.667v-21.333c0-2.577 2.089-4.667 4.667-4.667z"></path>
<path fill="#0079be" style="fill: var(--color3, #0079be)" d="M25.393 26c5.197 0.025 9.94-4.277 9.94-9.511 0-5.723-4.743-9.679-9.94-9.677h-4.473c-5.259-0.002-9.587 3.955-9.587 9.677 0 5.235 4.329 9.536 9.587 9.511h4.473z"></path>
<path fill="#fff" style="fill: var(--color1, #fff)" d="M20.942 7.605c-4.806 0.002-8.699 3.932-8.701 8.783 0.002 4.851 3.895 8.781 8.701 8.783 4.806-0.002 8.701-3.932 8.702-8.783-0.001-4.851-3.895-8.782-8.702-8.783zM15.427 16.389c-0.001-1.122 0.336-2.217 0.968-3.144s1.528-1.642 2.573-2.051v10.39c-1.044-0.409-1.941-1.123-2.573-2.050s-0.969-2.023-0.968-3.144zM22.916 21.585v-10.392c1.045 0.409 1.943 1.123 2.575 2.050s0.97 2.024 0.968 3.146c0.001 1.122-0.336 2.219-0.968 3.146s-1.529 1.642-2.574 2.051z"></path>
</symbol>
<symbol id="icon-CVC" viewBox="0 0 30 32">
<path fill="none" stroke="#b9b9b9" stroke-width="2.6667" stroke-miterlimit="4" stroke-linecap="butt" stroke-linejoin="miter" style="stroke: var(--color1, #b9b9b9)" d="M19.528 29.282c4.674-0.324 8.167-4.433 7.852-9.133s-4.323-8.289-8.997-7.965c-4.674 0.324-8.167 4.433-7.852 9.133s4.323 8.289 8.997 7.965z"></path>
<path fill="#b9b9b9" style="fill: var(--color1, #b9b9b9)" d="M16.929 20.522h-1.139c-0.008-0.096-0.030-0.183-0.065-0.261-0.034-0.078-0.081-0.145-0.141-0.202-0.059-0.057-0.131-0.101-0.216-0.132-0.085-0.031-0.181-0.047-0.289-0.047-0.189 0-0.348 0.047-0.479 0.14-0.129 0.093-0.228 0.227-0.295 0.401-0.066 0.174-0.099 0.383-0.099 0.627 0 0.258 0.034 0.473 0.101 0.647 0.069 0.173 0.168 0.303 0.297 0.391 0.129 0.086 0.285 0.129 0.467 0.129 0.104 0 0.197-0.013 0.279-0.039 0.082-0.027 0.154-0.066 0.214-0.117s0.11-0.112 0.147-0.183c0.039-0.073 0.065-0.154 0.079-0.245l1.139 0.008c-0.013 0.178-0.063 0.36-0.147 0.545-0.085 0.184-0.205 0.353-0.362 0.51-0.155 0.155-0.347 0.28-0.576 0.374s-0.495 0.142-0.798 0.142c-0.38 0-0.721-0.083-1.022-0.249-0.3-0.166-0.538-0.41-0.713-0.732-0.174-0.322-0.261-0.716-0.261-1.182 0-0.469 0.089-0.863 0.267-1.184 0.178-0.322 0.418-0.565 0.719-0.73 0.302-0.166 0.638-0.249 1.010-0.249 0.261 0 0.502 0.036 0.721 0.109s0.412 0.179 0.578 0.319c0.166 0.139 0.299 0.309 0.4 0.512s0.162 0.435 0.184 0.697z"></path>
<path fill="#b9b9b9" style="fill: var(--color1, #b9b9b9)" d="M18.485 18.943l0.849 2.968h0.032l0.849-2.968h1.269l-1.366 4.21h-1.535l-1.366-4.21h1.269z"></path>
<path fill="#b9b9b9" style="fill: var(--color1, #b9b9b9)" d="M25.398 20.522h-1.139c-0.008-0.096-0.030-0.183-0.065-0.261-0.034-0.078-0.081-0.145-0.141-0.202-0.059-0.057-0.131-0.101-0.216-0.132-0.085-0.031-0.181-0.047-0.289-0.047-0.189 0-0.348 0.047-0.479 0.14-0.129 0.093-0.228 0.227-0.295 0.401-0.066 0.174-0.099 0.383-0.099 0.627 0 0.258 0.034 0.473 0.101 0.647 0.069 0.173 0.168 0.303 0.297 0.391 0.129 0.086 0.285 0.129 0.467 0.129 0.104 0 0.197-0.013 0.279-0.039 0.082-0.027 0.153-0.066 0.214-0.117s0.11-0.112 0.148-0.183c0.039-0.073 0.065-0.154 0.079-0.245l1.139 0.008c-0.014 0.178-0.063 0.36-0.147 0.545-0.085 0.184-0.206 0.353-0.362 0.51-0.155 0.155-0.347 0.28-0.576 0.374s-0.495 0.142-0.798 0.142c-0.38 0-0.721-0.083-1.022-0.249-0.3-0.166-0.538-0.41-0.713-0.732-0.174-0.322-0.261-0.716-0.261-1.182 0-0.469 0.089-0.863 0.267-1.184 0.178-0.322 0.417-0.565 0.719-0.73 0.302-0.166 0.638-0.249 1.010-0.249 0.261 0 0.502 0.036 0.721 0.109s0.412 0.179 0.578 0.319c0.166 0.139 0.299 0.309 0.4 0.512s0.162 0.435 0.184 0.697z"></path>
<path fill="#b9b9b9" style="fill: var(--color1, #b9b9b9)" d="M27.022 17.742v-15.126c0-0.731-0.249-1.35-0.747-1.856s-1.106-0.76-1.824-0.76h-21.88c-0.718 0-1.327 0.253-1.824 0.76s-0.747 1.125-0.747 1.856v16.474c0 0.731 0.249 1.35 0.747 1.856s1.106 0.76 1.824 0.76h7.906c-0.018-0.152-0.032-0.305-0.043-0.46-0.039-0.582-0.021-1.154 0.050-1.711h-7.913c-0.109 0-0.21-0.046-0.301-0.139s-0.137-0.195-0.137-0.306v-8.821h22.756v4.115c0.944 0.923 1.683 2.067 2.133 3.358zM24.889 5.649h-22.756v-3.033c0-0.111 0.046-0.213 0.137-0.306s0.192-0.139 0.301-0.139h21.88c0.109 0 0.21 0.046 0.301 0.139s0.137 0.195 0.137 0.306v3.033z"></path>
</symbol>
<symbol id="icon-MasterCardLogo" viewBox="0 0 32 32">
<path fill="#231f20" style="fill: var(--color1, #231f20)" d="M5.821 28.313v-1.648c0.010-0.139-0.010-0.278-0.059-0.408s-0.124-0.249-0.222-0.348c-0.098-0.099-0.215-0.176-0.345-0.225s-0.269-0.071-0.407-0.063c-0.182-0.012-0.363 0.025-0.525 0.107s-0.3 0.206-0.398 0.36c-0.089-0.149-0.217-0.27-0.37-0.353s-0.325-0.122-0.498-0.114c-0.151-0.008-0.301 0.024-0.436 0.093s-0.25 0.171-0.333 0.297v-0.324h-0.571v2.626h0.577v-1.456c-0.012-0.090-0.005-0.181 0.022-0.268s0.073-0.166 0.134-0.233c0.061-0.067 0.137-0.119 0.221-0.153s0.175-0.049 0.265-0.044c0.379 0 0.571 0.247 0.571 0.692v1.461h0.577v-1.456c-0.012-0.090-0.003-0.181 0.024-0.267s0.073-0.165 0.135-0.232c0.061-0.067 0.136-0.119 0.22-0.153s0.174-0.050 0.264-0.046c0.39 0 0.577 0.247 0.577 0.692v1.461h0.577zM14.358 25.687h-0.934v-0.797h-0.577v0.797h-0.533v0.522h0.533v1.198c0 0.61 0.236 0.972 0.912 0.972 0.252 0.001 0.5-0.070 0.714-0.203l-0.165-0.489c-0.153 0.091-0.327 0.142-0.505 0.148-0.286 0-0.379-0.176-0.379-0.439v-1.186h0.934v-0.522zM19.23 25.621c-0.139-0.004-0.277 0.029-0.399 0.097s-0.223 0.167-0.293 0.287v-0.319h-0.566v2.626h0.571v-1.472c0-0.434 0.187-0.676 0.56-0.676 0.122-0.002 0.244 0.021 0.357 0.066l0.176-0.538c-0.13-0.047-0.268-0.071-0.407-0.071zM11.864 25.896c-0.323-0.192-0.695-0.288-1.071-0.275-0.665 0-1.093 0.319-1.093 0.84 0 0.428 0.319 0.692 0.906 0.775l0.269 0.038c0.313 0.044 0.461 0.126 0.461 0.275 0 0.203-0.209 0.319-0.599 0.319-0.314 0.009-0.621-0.088-0.873-0.275l-0.269 0.445c0.333 0.232 0.731 0.352 1.137 0.341 0.758 0 1.197-0.357 1.197-0.857 0-0.461-0.346-0.703-0.917-0.786l-0.269-0.038c-0.247-0.033-0.445-0.082-0.445-0.258 0-0.192 0.187-0.308 0.5-0.308 0.288 0.004 0.569 0.082 0.819 0.225l0.247-0.461zM27.168 25.621c-0.139-0.004-0.277 0.029-0.399 0.097s-0.223 0.167-0.293 0.287v-0.319h-0.566v2.626h0.571v-1.472c0-0.434 0.187-0.676 0.56-0.676 0.122-0.002 0.244 0.021 0.357 0.066l0.176-0.538c-0.131-0.047-0.268-0.071-0.407-0.071zM19.807 27c-0.008 0.185 0.024 0.369 0.092 0.542s0.171 0.328 0.303 0.458c0.132 0.13 0.29 0.231 0.463 0.296s0.358 0.094 0.543 0.083c0.343 0.017 0.68-0.094 0.945-0.313l-0.275-0.461c-0.198 0.151-0.438 0.233-0.687 0.236-0.214-0.013-0.415-0.107-0.562-0.263s-0.229-0.363-0.229-0.577c0-0.215 0.082-0.421 0.229-0.577s0.348-0.25 0.562-0.263c0.248 0.003 0.489 0.086 0.687 0.236l0.275-0.462c-0.265-0.219-0.602-0.33-0.945-0.313-0.185-0.011-0.37 0.018-0.543 0.083s-0.331 0.166-0.463 0.296-0.235 0.286-0.303 0.458c-0.068 0.172-0.099 0.357-0.092 0.542zM25.157 27v-1.313h-0.571v0.319c-0.098-0.126-0.224-0.226-0.368-0.293s-0.303-0.098-0.461-0.091c-0.354 0.017-0.688 0.17-0.932 0.427s-0.381 0.598-0.381 0.952 0.136 0.695 0.381 0.952c0.244 0.257 0.578 0.41 0.932 0.427 0.159 0.007 0.317-0.025 0.461-0.092s0.271-0.167 0.368-0.293v0.319h0.571v-1.313zM23.031 27c0.009-0.155 0.063-0.304 0.155-0.428s0.219-0.219 0.365-0.273 0.304-0.063 0.455-0.027c0.151 0.035 0.288 0.114 0.395 0.227s0.178 0.254 0.206 0.407c0.027 0.153 0.009 0.31-0.052 0.453s-0.163 0.264-0.292 0.35-0.281 0.132-0.436 0.132c-0.109 0.001-0.217-0.020-0.317-0.062s-0.191-0.105-0.265-0.184c-0.075-0.079-0.133-0.173-0.169-0.275s-0.052-0.211-0.045-0.32zM16.137 25.621c-0.356 0.019-0.691 0.175-0.935 0.435s-0.377 0.605-0.372 0.962c0.005 0.357 0.148 0.698 0.399 0.951s0.59 0.4 0.947 0.409c0.392 0.014 0.775-0.117 1.077-0.368l-0.28-0.423c-0.217 0.174-0.486 0.27-0.764 0.275-0.189 0.016-0.376-0.042-0.523-0.162s-0.241-0.292-0.263-0.48h1.95c0.005-0.071 0.011-0.143 0.011-0.22-0.005-0.818-0.511-1.379-1.247-1.379zM16.126 26.132c0.173-0.003 0.339 0.062 0.464 0.181s0.197 0.283 0.201 0.456h-1.362c0.010-0.176 0.089-0.342 0.219-0.461s0.302-0.182 0.479-0.177zM30.458 27v-2.367h-0.571v1.373c-0.098-0.126-0.224-0.226-0.368-0.293s-0.303-0.098-0.461-0.091c-0.354 0.017-0.688 0.17-0.932 0.427s-0.381 0.598-0.381 0.952 0.136 0.695 0.381 0.952c0.244 0.257 0.578 0.41 0.932 0.427 0.159 0.007 0.317-0.025 0.461-0.092s0.27-0.167 0.368-0.293v0.319h0.571v-1.313zM31.41 27.932c0.035-0 0.071 0.007 0.103 0.021 0.031 0.013 0.060 0.032 0.084 0.056s0.043 0.052 0.057 0.083c0.014 0.032 0.021 0.066 0.021 0.101s-0.007 0.069-0.021 0.101c-0.014 0.031-0.033 0.059-0.057 0.083s-0.053 0.043-0.084 0.056c-0.033 0.014-0.068 0.021-0.103 0.021-0.052 0.001-0.103-0.014-0.147-0.043s-0.078-0.069-0.099-0.117c-0.014-0.032-0.021-0.066-0.021-0.101s0.007-0.069 0.021-0.101c0.013-0.031 0.033-0.059 0.057-0.083s0.053-0.043 0.085-0.056c0.033-0.014 0.069-0.021 0.105-0.021zM31.41 28.396c0.027 0 0.054-0.005 0.079-0.016 0.024-0.010 0.046-0.025 0.064-0.044 0.038-0.038 0.059-0.090 0.059-0.144s-0.021-0.106-0.059-0.144c-0.018-0.018-0.040-0.033-0.064-0.043-0.025-0.011-0.052-0.016-0.079-0.016s-0.055 0.005-0.080 0.016c-0.024 0.010-0.046 0.025-0.065 0.043-0.038 0.038-0.059 0.090-0.059 0.144s0.021 0.106 0.059 0.144c0.019 0.019 0.041 0.033 0.065 0.044 0.025 0.011 0.053 0.016 0.080 0.016zM31.426 28.071c0.026-0.002 0.051 0.006 0.072 0.021 0.008 0.007 0.015 0.015 0.019 0.025s0.006 0.021 0.006 0.031c0 0.009-0.001 0.018-0.005 0.027s-0.009 0.016-0.015 0.023c-0.016 0.014-0.036 0.023-0.057 0.024l0.079 0.091h-0.062l-0.074-0.091h-0.024v0.091h-0.052v-0.242h0.112zM31.366 28.116v0.065h0.059c0.011 0.001 0.023-0.002 0.033-0.008 0.004-0.003 0.007-0.006 0.009-0.011s0.003-0.009 0.003-0.014c0-0.005-0.001-0.009-0.003-0.014s-0.005-0.008-0.009-0.010c-0.010-0.006-0.021-0.009-0.033-0.008h-0.059zM28.332 27c0.009-0.155 0.063-0.304 0.155-0.428s0.219-0.219 0.365-0.273c0.146-0.053 0.304-0.063 0.455-0.027s0.288 0.114 0.395 0.227 0.178 0.254 0.206 0.407c0.027 0.153 0.009 0.31-0.052 0.453s-0.163 0.264-0.292 0.35c-0.129 0.086-0.281 0.132-0.436 0.132-0.109 0.001-0.217-0.020-0.317-0.062s-0.191-0.105-0.265-0.184-0.132-0.173-0.169-0.275c-0.037-0.102-0.052-0.211-0.045-0.32zM9.040 27v-1.313h-0.571v0.319c-0.098-0.126-0.224-0.226-0.368-0.293s-0.303-0.098-0.462-0.091c-0.354 0.017-0.688 0.17-0.932 0.427s-0.381 0.598-0.381 0.952 0.136 0.695 0.381 0.952c0.244 0.257 0.578 0.41 0.932 0.427 0.159 0.007 0.317-0.025 0.462-0.092s0.27-0.167 0.368-0.293v0.319h0.571v-1.313zM6.914 27c0.009-0.155 0.063-0.304 0.155-0.428s0.219-0.219 0.365-0.273c0.146-0.053 0.304-0.063 0.455-0.027s0.288 0.114 0.395 0.227c0.107 0.113 0.178 0.254 0.206 0.407s0.009 0.31-0.052 0.453c-0.061 0.143-0.163 0.264-0.292 0.35s-0.281 0.132-0.436 0.132c-0.109 0.001-0.217-0.020-0.317-0.062s-0.191-0.105-0.265-0.184-0.133-0.173-0.169-0.275c-0.037-0.102-0.052-0.211-0.045-0.32z"></path>
<path fill="#ff5f00" style="fill: var(--color2, #ff5f00)" d="M20.327 5.676h-8.653v15.55h8.653v-15.55z"></path>
<path fill="#eb001b" style="fill: var(--color3, #eb001b)" d="M12.223 13.452c-0.001-1.498 0.338-2.976 0.992-4.323s1.607-2.527 2.785-3.452c-1.459-1.147-3.211-1.86-5.056-2.058s-3.708 0.127-5.377 0.938c-1.669 0.811-3.076 2.075-4.061 3.648s-1.506 3.391-1.506 5.247c0 1.855 0.522 3.674 1.506 5.247s2.392 2.837 4.061 3.648c1.669 0.811 3.532 1.136 5.377 0.938s3.597-0.911 5.056-2.058c-1.178-0.925-2.13-2.105-2.785-3.452s-0.994-2.825-0.992-4.323z"></path>
<path fill="#f79e1b" style="fill: var(--color4, #f79e1b)" d="M32 13.452c0 1.855-0.522 3.674-1.506 5.246s-2.391 2.837-4.060 3.648-3.532 1.136-5.377 0.938c-1.845-0.198-3.597-0.911-5.056-2.058 1.177-0.926 2.129-2.106 2.783-3.453s0.994-2.825 0.994-4.322c0-1.497-0.34-2.975-0.994-4.322s-1.606-2.527-2.783-3.453c1.459-1.147 3.211-1.86 5.056-2.058s3.708 0.127 5.377 0.938 3.076 2.075 4.060 3.648c0.984 1.573 1.506 3.391 1.506 5.247z"></path>
<path fill="#f79e1b" style="fill: var(--color4, #f79e1b)" d="M31.057 19.579v-0.318h0.128v-0.065h-0.327v0.065h0.128v0.318h0.070zM31.691 19.579v-0.384h-0.1l-0.115 0.264-0.115-0.264h-0.1v0.384h0.071v-0.29l0.108 0.25h0.073l0.108-0.25v0.29h0.071z"></path>
</symbol>
<symbol id="icon-upload" viewBox="0 0 32 32">
<path d="M16 21.334c-0.378 0-0.694-0.128-0.95-0.383s-0.383-0.572-0.383-0.95v-9.533l-2.5 2.5c-0.267 0.267-0.578 0.4-0.933 0.4s-0.678-0.144-0.967-0.433c-0.267-0.267-0.394-0.583-0.383-0.95s0.139-0.672 0.383-0.917l4.8-4.8c0.133-0.133 0.278-0.228 0.433-0.283s0.322-0.083 0.5-0.083c0.178 0 0.344 0.028 0.5 0.083s0.3 0.15 0.433 0.283l4.8 4.8c0.267 0.267 0.394 0.583 0.383 0.95s-0.139 0.672-0.383 0.917c-0.267 0.267-0.583 0.405-0.95 0.417s-0.683-0.117-0.95-0.383l-2.5-2.5v9.533c0 0.378-0.128 0.694-0.383 0.95s-0.572 0.383-0.95 0.383zM8 26.668c-0.733 0-1.361-0.261-1.883-0.783s-0.783-1.15-0.783-1.883v-2.667c0-0.378 0.128-0.695 0.383-0.95s0.572-0.383 0.95-0.383 0.694 0.128 0.95 0.383c0.256 0.255 0.383 0.572 0.383 0.95v2.667h16v-2.667c0-0.378 0.128-0.695 0.383-0.95s0.572-0.383 0.95-0.383 0.694 0.128 0.95 0.383c0.256 0.255 0.383 0.572 0.383 0.95v2.667c0 0.733-0.261 1.361-0.783 1.883s-1.15 0.783-1.883 0.783h-16z"></path>
</symbol>
<symbol id="icon-delete" viewBox="0 0 32 32">
<path  d="M9.333 28c-0.733 0-1.361-0.261-1.883-0.783s-0.783-1.15-0.783-1.883v-17.333c-0.378 0-0.694-0.128-0.95-0.383s-0.383-0.572-0.383-0.95c0-0.378 0.128-0.694 0.383-0.95s0.572-0.383 0.95-0.383h5.333c0-0.378 0.128-0.694 0.383-0.95s0.572-0.383 0.95-0.383h5.333c0.378 0 0.694 0.128 0.95 0.383s0.383 0.572 0.383 0.95h5.333c0.378 0 0.694 0.128 0.95 0.383s0.383 0.572 0.383 0.95c0 0.378-0.128 0.694-0.383 0.95s-0.572 0.383-0.95 0.383v17.333c0 0.733-0.261 1.361-0.783 1.883s-1.15 0.783-1.883 0.783h-13.333zM9.333 8v17.333h13.333v-17.333h-13.333zM12 21.333c0 0.378 0.128 0.694 0.383 0.95s0.572 0.383 0.95 0.383c0.378 0 0.694-0.128 0.95-0.383s0.383-0.572 0.383-0.95v-9.333c0-0.378-0.128-0.694-0.383-0.95s-0.572-0.383-0.95-0.383c-0.378 0-0.694 0.128-0.95 0.383s-0.383 0.572-0.383 0.95v9.333zM17.333 21.333c0 0.378 0.128 0.694 0.383 0.95s0.572 0.383 0.95 0.383c0.378 0 0.694-0.128 0.95-0.383s0.383-0.572 0.383-0.95v-9.333c0-0.378-0.128-0.694-0.383-0.95s-0.572-0.383-0.95-0.383c-0.378 0-0.694 0.128-0.95 0.383s-0.383 0.572-0.383 0.95v9.333z"></path>
</symbol>
<symbol id="icon-edit" viewBox="0 0 32 32">
<path  d="M6.872 25.332h1.649l12.346-12.346-1.649-1.649-12.346 12.346v1.649zM25.144 11.54l-4.5-4.459 1.751-1.751c0.383-0.383 0.855-0.574 1.415-0.574s1.032 0.191 1.415 0.574l1.649 1.649c0.383 0.383 0.581 0.848 0.595 1.395s-0.171 1.012-0.554 1.395l-1.772 1.772zM6.077 27.332c-0.344 0-0.63-0.115-0.86-0.345s-0.345-0.517-0.345-0.86v-2.792c0-0.161 0.029-0.314 0.087-0.459s0.15-0.28 0.274-0.405l13.964-13.964 4.5 4.5-13.964 13.964c-0.125 0.125-0.26 0.216-0.405 0.274s-0.298 0.087-0.459 0.087h-2.792z"></path>
</symbol>
<symbol id="icon-delete2" viewBox="0 0 27 32">
<path d="M19.759 2.667h6.586v2.667h-26.345v-2.667h6.586l2.205-2.667h8.762l2.205 2.667zM6.147 32c-1.932 0-3.513-1.596-3.513-3.548v-20.452h21.076v20.452c0 1.952-1.581 3.548-3.513 3.548h-14.051z"></path>
</symbol>
<symbol id="icon-edit2" viewBox="0 0 32 32">
<path d="M25.329 1.085l5.48 5.48c1.532 1.46 1.595 3.883 0.14 5.42l-18 18c-0.652 0.646-1.506 1.049-2.42 1.14l-8.34 0.76h-0.18c-0.532 0.003-1.043-0.206-1.42-0.58-0.422-0.421-0.635-1.007-0.58-1.6l0.86-8.34c0.091-0.914 0.494-1.768 1.14-2.42l18-18c1.552-1.311 3.84-1.251 5.32 0.14zM18.65 7.884l5.36 5.36 4-3.9-5.46-5.46-3.9 4z"></path>
</symbol>
<symbol id="icon-rightBtn" viewBox="0 0 20 32">
<path  d="M7.169 30.511l12.335-12.48c0.551-0.546 0.86-1.29 0.86-2.065s-0.31-1.519-0.861-2.065l-12.335-12.335c-0.546-0.551-1.29-0.861-2.065-0.861s-1.519 0.31-2.065 0.861c-1.128 1.135-1.128 2.967 0 4.102l10.298 10.298-10.298 10.298c-0.537 0.542-0.84 1.273-0.844 2.036-0.004 0.773 0.299 1.517 0.844 2.065 0.527 0.57 1.259 0.907 2.035 0.934s1.53-0.257 2.096-0.788z"></path>
</symbol>
<symbol id="icon-leftBtn" viewBox="0 0 20 32">
<path  d="M13.195 30.511l-12.335-12.48c-0.551-0.546-0.861-1.29-0.861-2.065s0.31-1.519 0.861-2.065l12.335-12.335c0.546-0.551 1.29-0.861 2.065-0.861s1.519 0.31 2.065 0.861c1.128 1.135 1.128 2.967 0 4.102l-10.298 10.298 10.298 10.298c0.537 0.542 0.84 1.273 0.844 2.036 0.004 0.773-0.299 1.517-0.844 2.065-0.527 0.57-1.259 0.907-2.035 0.934s-1.53-0.257-2.096-0.788z"></path>
</symbol>
<symbol id="icon-visibility" viewBox="0 0 30 32">
<path  d="M15.242 21.112c1.606 0 2.97-0.562 4.091-1.686s1.683-2.489 1.683-4.095c0-1.606-0.562-2.97-1.686-4.091s-2.489-1.683-4.095-1.683c-1.606 0-2.97 0.562-4.091 1.686s-1.683 2.489-1.683 4.095c0 1.606 0.562 2.97 1.686 4.092s2.489 1.682 4.095 1.682zM15.238 18.763c-0.952 0-1.762-0.333-2.429-1s-1-1.476-1-2.428c0-0.952 0.333-1.762 1-2.429s1.476-1 2.429-1c0.952 0 1.762 0.333 2.428 1s1 1.476 1 2.429c0 0.952-0.333 1.762-1 2.428s-1.476 1-2.428 1zM15.238 24.89c-2.963 0-5.661-0.783-8.095-2.349s-4.265-3.672-5.492-6.317c-0.042-0.106-0.079-0.238-0.111-0.397s-0.048-0.323-0.048-0.492c0-0.169 0.016-0.333 0.048-0.492s0.069-0.291 0.111-0.397c1.228-2.646 3.061-4.741 5.502-6.286s5.136-2.317 8.085-2.317c2.95 0 5.645 0.772 8.085 2.317s4.274 3.64 5.502 6.286c0.042 0.106 0.079 0.238 0.111 0.397s0.048 0.323 0.048 0.492c0 0.169-0.016 0.333-0.048 0.492s-0.069 0.291-0.111 0.397c-1.228 2.646-3.058 4.751-5.492 6.317s-5.132 2.349-8.095 2.349zM15.232 22.223c2.374 0 4.551-0.619 6.53-1.857s3.487-2.915 4.524-5.032c-1.037-2.116-2.546-3.783-4.527-5s-4.155-1.825-6.524-1.825c-2.368 0-4.547 0.608-6.537 1.825s-3.503 2.884-4.54 5c1.037 2.116 2.548 3.794 4.534 5.032s4.165 1.857 6.54 1.857z"></path>
</symbol>
<symbol id="icon-calendar_month" viewBox="0 0 32 32">
<path d="M6.667 26.667c-0.733 0-1.361-0.261-1.883-0.783s-0.783-1.15-0.783-1.883v-18.667c0-0.733 0.261-1.361 0.783-1.883s1.15-0.783 1.883-0.783h1.333v-1.333c0-0.378 0.128-0.694 0.383-0.95s0.572-0.383 0.95-0.383c0.378 0 0.694 0.128 0.95 0.383s0.383 0.572 0.383 0.95v1.333h10.667v-1.333c0-0.378 0.128-0.694 0.383-0.95s0.572-0.383 0.95-0.383c0.378 0 0.694 0.128 0.95 0.383s0.383 0.572 0.383 0.95v1.333h1.333c0.733 0 1.361 0.261 1.883 0.783s0.783 1.15 0.783 1.883v18.667c0 0.733-0.261 1.361-0.783 1.883s-1.15 0.783-1.883 0.783h-18.667zM6.667 24h18.667v-13.333h-18.667v13.333zM6.667 8h18.667v-2.667h-18.667v2.667zM16 16c-0.378 0-0.694-0.128-0.95-0.383s-0.383-0.572-0.383-0.95c0-0.378 0.128-0.694 0.383-0.95s0.572-0.383 0.95-0.383c0.378 0 0.694 0.128 0.95 0.383s0.383 0.572 0.383 0.95c0 0.378-0.128 0.694-0.383 0.95s-0.572 0.383-0.95 0.383zM10.667 16c-0.378 0-0.694-0.128-0.95-0.383s-0.383-0.572-0.383-0.95c0-0.378 0.128-0.694 0.383-0.95s0.572-0.383 0.95-0.383c0.378 0 0.694 0.128 0.95 0.383s0.383 0.572 0.383 0.95c0 0.378-0.128 0.694-0.383 0.95s-0.572 0.383-0.95 0.383zM21.333 16c-0.378 0-0.694-0.128-0.95-0.383s-0.383-0.572-0.383-0.95c0-0.378 0.128-0.694 0.383-0.95s0.572-0.383 0.95-0.383c0.378 0 0.694 0.128 0.95 0.383s0.383 0.572 0.383 0.95c0 0.378-0.128 0.694-0.383 0.95s-0.572 0.383-0.95 0.383zM16 21.333c-0.378 0-0.694-0.128-0.95-0.383s-0.383-0.572-0.383-0.95c0-0.378 0.128-0.694 0.383-0.95s0.572-0.383 0.95-0.383c0.378 0 0.694 0.128 0.95 0.383s0.383 0.572 0.383 0.95c0 0.378-0.128 0.694-0.383 0.95s-0.572 0.383-0.95 0.383zM10.667 21.333c-0.378 0-0.694-0.128-0.95-0.383s-0.383-0.572-0.383-0.95c0-0.378 0.128-0.694 0.383-0.95s0.572-0.383 0.95-0.383c0.378 0 0.694 0.128 0.95 0.383s0.383 0.572 0.383 0.95c0 0.378-0.128 0.694-0.383 0.95s-0.572 0.383-0.95 0.383zM21.333 21.333c-0.378 0-0.694-0.128-0.95-0.383s-0.383-0.572-0.383-0.95c0-0.378 0.128-0.694 0.383-0.95s0.572-0.383 0.95-0.383c0.378 0 0.694 0.128 0.95 0.383s0.383 0.572 0.383 0.95c0 0.378-0.128 0.694-0.383 0.95s-0.572 0.383-0.95 0.383z"></path>
</symbol>
<symbol id="icon-add" viewBox="0 0 32 32">
<path d="M16 25.332c-0.378 0-0.706-0.139-0.983-0.417s-0.417-0.602-0.417-0.973v-6.544h-6.544c-0.371 0-0.695-0.139-0.973-0.417s-0.417-0.605-0.417-0.983c0-0.378 0.139-0.706 0.417-0.983s0.602-0.417 0.973-0.417h6.544v-6.544c0-0.371 0.139-0.695 0.417-0.973s0.606-0.417 0.983-0.417c0.378 0 0.705 0.139 0.983 0.417s0.417 0.602 0.417 0.973v6.544h6.544c0.371 0 0.695 0.139 0.973 0.417s0.417 0.606 0.417 0.983c0 0.378-0.139 0.706-0.417 0.983s-0.602 0.417-0.973 0.417h-6.544v6.544c0 0.371-0.139 0.695-0.417 0.973s-0.605 0.417-0.983 0.417z"></path>
</symbol>
<symbol id="icon-calculate" viewBox="0 0 32 32">
<path  d="M0 27.937c0-8.5 0-16.999 0-25.5 0.018-0.048 0.041-0.095 0.052-0.144 0.343-1.451 1.401-2.292 2.895-2.293 8.155 0 16.31 0 24.465 0.004 0.288 0 0.586 0.027 0.864 0.097 1.285 0.325 2.097 1.441 2.098 2.861 0.002 4.562-0.002 9.123 0.007 13.686 0 0.184 0.064 0.388 0.159 0.547 0.486 0.807 0.884 1.653 1.11 2.567 0.147 0.593 0.234 1.2 0.349 1.801v1.5c-0.019 0.090-0.048 0.18-0.057 0.271-0.347 3.761-3.146 7.174-6.782 8.227-0.684 0.198-1.398 0.296-2.098 0.439h-1.5c-0.080-0.018-0.159-0.047-0.24-0.055-1.463-0.144-2.812-0.62-4.073-1.37-0.193-0.114-0.439-0.191-0.662-0.192-4.558-0.011-9.116-0.007-13.674-0.009-1.308 0-2.382-0.751-2.771-1.93-0.055-0.166-0.096-0.338-0.142-0.507zM22.302 14.5c-4.304 0.005-7.807 3.517-7.802 7.823 0.005 4.303 3.518 7.808 7.822 7.803s7.807-3.519 7.802-7.823c-0.006-4.305-3.517-7.807-7.823-7.802zM14.235 1.875c-0.124 0-0.227 0-0.328 0-3.646 0-7.292 0-10.938 0-0.731 0-1.093 0.362-1.093 1.092 0 3.656 0 7.312 0 10.969 0 0.1 0.009 0.2 0.013 0.299h12.346v-12.36zM16.145 1.875v12.906c4.123-2.901 8.229-2.903 12.356 0.015 0-0.104 0-0.196 0-0.288 0-3.843 0-7.686 0-11.53 0-0.747-0.36-1.102-1.116-1.102-3.635 0-7.27 0-10.905 0-0.103 0-0.207 0-0.335 0v-0.001zM14.231 16.148h-12.356c0 0.084 0 0.145 0 0.207 0 3.708-0.001 7.416 0.001 11.123 0 0.64 0.388 1.021 1.039 1.021 3.885 0.002 7.77 0 11.655 0 0.077 0 0.153-0.012 0.264-0.022-0.079-0.106-0.133-0.18-0.188-0.252-2.413-3.119-2.697-7.411-0.684-10.792 0.246-0.413 0.331-0.81 0.27-1.285h-0.001z"></path>
<path  d="M22.31 19.813c0.697 0 1.393-0.002 2.090 0 0.608 0.002 1.031 0.382 1.036 0.927 0.006 0.557-0.421 0.946-1.048 0.947-1.383 0.002-2.765 0.002-4.148 0-0.628 0-1.055-0.387-1.052-0.943 0.003-0.554 0.43-0.93 1.063-0.931 0.686-0.002 1.372 0 2.058 0z"></path>
<path  d="M22.295 24.812c-0.697 0-1.393 0.003-2.090-0.001-0.598-0.003-1.023-0.401-1.017-0.946 0.005-0.533 0.424-0.925 1.004-0.927 1.414-0.003 2.827-0.003 4.242 0 0.58 0.002 0.997 0.396 1.002 0.93s-0.413 0.938-0.989 0.943c-0.718 0.006-1.435 0.002-2.152 0.002v-0.001z"></path>
<path  d="M7.125 7.126c0-0.422-0.003-0.805 0-1.188 0.006-0.579 0.4-0.998 0.935-0.999s0.93 0.417 0.938 0.996c0.005 0.375 0.006 0.75 0.009 1.124 0 0.009 0.008 0.018 0.033 0.066 0.36 0 0.742-0.003 1.123 0 0.603 0.004 1.027 0.396 1.023 0.943s-0.426 0.927-1.035 0.931c-0.373 0.002-0.745 0-1.151 0 0 0.397 0.002 0.769 0 1.141-0.003 0.626-0.394 1.055-0.952 1.045-0.545-0.009-0.919-0.431-0.923-1.044-0.002-0.364 0-0.728 0-1.143-0.42 0-0.832 0.009-1.242-0.002-0.729-0.020-1.167-0.75-0.828-1.374 0.179-0.331 0.468-0.493 0.843-0.497 0.395-0.004 0.789-0.001 1.229-0.001l-0.002 0.001z"></path>
<path  d="M22.345 7.126c0.593 0 1.185-0.003 1.778 0.001 0.58 0.004 0.997 0.396 1.002 0.929 0.003 0.535-0.413 0.94-0.988 0.943-1.216 0.005-2.433 0.005-3.648 0-0.573-0.002-0.991-0.411-0.986-0.945 0.005-0.533 0.424-0.923 1.004-0.927 0.613-0.004 1.227-0.001 1.84-0.001h-0.001z"></path>
<path  d="M9.347 22.32c0.317 0.298 0.596 0.547 0.858 0.811 0.447 0.449 0.473 1.023 0.074 1.412s-0.959 0.354-1.412-0.099c-0.258-0.257-0.505-0.524-0.784-0.815-0.327 0.322-0.618 0.63-0.931 0.913-0.554 0.504-1.373 0.268-1.559-0.444-0.093-0.355 0.018-0.66 0.27-0.912 0.279-0.28 0.568-0.55 0.883-0.854-0.322-0.326-0.63-0.616-0.915-0.928-0.506-0.552-0.269-1.374 0.442-1.56 0.355-0.093 0.66 0.018 0.912 0.269 0.281 0.279 0.55 0.568 0.855 0.884 0.325-0.322 0.615-0.63 0.926-0.914 0.558-0.512 1.404-0.255 1.568 0.471 0.077 0.343-0.034 0.64-0.277 0.883-0.279 0.28-0.569 0.549-0.914 0.881l0.002 0.001z"></path>
</symbol>
<symbol id="icon-check_circle" viewBox="0 0 32 32">
<path  d="M14.133 18.4l-2.867-2.867c-0.244-0.244-0.556-0.367-0.933-0.367s-0.689 0.122-0.933 0.367c-0.244 0.244-0.367 0.556-0.367 0.933s0.122 0.689 0.367 0.933l3.8 3.8c0.267 0.267 0.578 0.4 0.933 0.4s0.667-0.133 0.933-0.4l7.533-7.533c0.244-0.244 0.367-0.556 0.367-0.933s-0.122-0.689-0.367-0.933c-0.244-0.244-0.556-0.367-0.933-0.367s-0.689 0.122-0.933 0.367l-6.6 6.6zM16 29.333c-1.844 0-3.578-0.35-5.2-1.050s-3.033-1.65-4.233-2.85c-1.2-1.2-2.15-2.611-2.85-4.233s-1.050-3.356-1.050-5.2c0-1.844 0.35-3.578 1.050-5.2s1.65-3.033 2.85-4.233c1.2-1.2 2.611-2.15 4.233-2.85s3.356-1.050 5.2-1.050c1.844 0 3.578 0.35 5.2 1.050s3.033 1.65 4.233 2.85c1.2 1.2 2.15 2.611 2.85 4.233s1.050 3.356 1.050 5.2c0 1.844-0.35 3.578-1.050 5.2s-1.65 3.033-2.85 4.233c-1.2 1.2-2.611 2.15-4.233 2.85s-3.356 1.050-5.2 1.050z"></path>
</symbol>
<symbol id="icon-lock" viewBox="0 0 32 32">
<path  d="M8 29.333c-0.733 0-1.361-0.261-1.883-0.783s-0.783-1.15-0.783-1.883v-13.333c0-0.733 0.261-1.361 0.783-1.883s1.15-0.783 1.883-0.783h1.333v-2.667c0-1.844 0.65-3.417 1.95-4.717s2.872-1.95 4.717-1.95c1.844 0 3.417 0.65 4.717 1.95s1.95 2.872 1.95 4.717v2.667h1.333c0.733 0 1.361 0.261 1.883 0.783s0.783 1.15 0.783 1.883v13.333c0 0.733-0.261 1.361-0.783 1.883s-1.15 0.783-1.883 0.783h-16zM16 22.667c0.733 0 1.361-0.261 1.883-0.783s0.783-1.15 0.783-1.883c0-0.733-0.261-1.361-0.783-1.883s-1.15-0.783-1.883-0.783c-0.733 0-1.361 0.261-1.883 0.783s-0.783 1.15-0.783 1.883c0 0.733 0.261 1.361 0.783 1.883s1.15 0.783 1.883 0.783zM12 10.667h8v-2.667c0-1.111-0.389-2.056-1.167-2.833s-1.722-1.167-2.833-1.167c-1.111 0-2.056 0.389-2.833 1.167s-1.167 1.722-1.167 2.833v2.667z"></path>
</symbol>
<symbol id="icon-account_balance" viewBox="0 0 32 32">
<path  d="M8 22.667c-0.378 0-0.694-0.128-0.95-0.383s-0.383-0.572-0.383-0.95v-6.7c0-0.378 0.128-0.689 0.383-0.933s0.572-0.367 0.95-0.367c0.378 0 0.694 0.128 0.95 0.383s0.383 0.572 0.383 0.95v6.7c0 0.378-0.128 0.689-0.383 0.933s-0.572 0.367-0.95 0.367zM16 22.667c-0.378 0-0.694-0.128-0.95-0.383s-0.383-0.572-0.383-0.95v-6.7c0-0.378 0.128-0.689 0.383-0.933s0.572-0.367 0.95-0.367c0.378 0 0.694 0.128 0.95 0.383s0.383 0.572 0.383 0.95v6.7c0 0.378-0.128 0.689-0.383 0.933s-0.572 0.367-0.95 0.367zM3.967 28c-0.378 0-0.689-0.128-0.933-0.383s-0.367-0.572-0.367-0.95c0-0.378 0.128-0.694 0.383-0.95s0.572-0.383 0.95-0.383h24.033c0.378 0 0.689 0.128 0.933 0.383s0.367 0.572 0.367 0.95c0 0.378-0.128 0.694-0.383 0.95s-0.572 0.383-0.95 0.383h-24.033zM24 22.667c-0.378 0-0.694-0.128-0.95-0.383s-0.383-0.572-0.383-0.95v-6.7c0-0.378 0.128-0.689 0.383-0.933s0.572-0.367 0.95-0.367c0.378 0 0.694 0.128 0.95 0.383s0.383 0.572 0.383 0.95v6.7c0 0.378-0.128 0.689-0.383 0.933s-0.572 0.367-0.95 0.367zM17.2 1.933l11.233 5.6c0.289 0.156 0.511 0.372 0.667 0.65s0.233 0.583 0.233 0.917c0 0.444-0.161 0.817-0.483 1.117s-0.706 0.45-1.15 0.45h-23.367c-0.444 0-0.833-0.15-1.167-0.45s-0.5-0.672-0.5-1.117c0-0.311 0.072-0.611 0.217-0.9s0.372-0.5 0.683-0.633l11.233-5.633c0.378-0.178 0.778-0.267 1.2-0.267s0.822 0.089 1.2 0.267z"></path>
</symbol>
<symbol id="icon-heart" viewBox="0 0 38 32">
<path fill="none" stroke="#5433ff" stroke-width="3.2" stroke-miterlimit="4" stroke-linecap="butt" stroke-linejoin="miter" style="stroke: var(--color1, #5433ff)" d="M19.2 29.6l15.028-15.654c2.344-2.442 2.382-6.286 0.086-8.773l-1.188-1.287c-2.392-2.591-6.428-2.759-9.027-0.377l-4.899 4.49-4.899-4.49c-2.599-2.383-6.636-2.214-9.027 0.377l-1.188 1.287c-2.296 2.487-2.258 6.332 0.086 8.773l15.028 15.654z"></path>
</symbol>
<symbol id="icon-heart-white" viewBox="0 0 38 32">
<path fill="none" stroke="#ffffff" stroke-width="3.2" stroke-miterlimit="4" stroke-linecap="butt" stroke-linejoin="miter" style="stroke: var(--color1, #ffffff)" d="M19.2 29.6l15.028-15.654c2.344-2.442 2.382-6.286 0.086-8.773l-1.188-1.287c-2.392-2.591-6.428-2.759-9.027-0.377l-4.899 4.49-4.899-4.49c-2.599-2.383-6.636-2.214-9.027 0.377l-1.188 1.287c-2.296 2.487-2.258 6.332 0.086 8.773l15.028 15.654z"></path>
</symbol>
<symbol id="icon-facebook" viewBox="0 0 32 32">
<path  d="M29.333 16.082c0-7.409-5.969-13.414-13.333-13.414s-13.333 6.005-13.333 13.414c0 6.697 4.875 12.246 11.25 13.252v-9.374h-3.385v-3.879h3.385v-2.955c0-3.362 1.99-5.22 5.036-5.22 1.458 0 2.985 0.262 2.985 0.262v3.301h-1.683c-1.656 0-2.172 1.035-2.172 2.096v2.516h3.698l-0.591 3.877h-3.107v9.375c6.375-1.006 11.25-6.556 11.25-13.252z"></path>
</symbol>
<symbol id="icon-linkedin" viewBox="0 0 32 32">
<path  d="M28 5.765v20.471c0 0.468-0.186 0.917-0.517 1.248s-0.78 0.517-1.248 0.517h-20.471c-0.468 0-0.917-0.186-1.248-0.517s-0.517-0.78-0.517-1.248v-20.471c0-0.468 0.186-0.917 0.517-1.248s0.78-0.517 1.248-0.517h20.471c0.468 0 0.917 0.186 1.248 0.517s0.517 0.78 0.517 1.248zM11.059 13.177h-3.529v11.294h3.529v-11.294zM11.377 9.294c0.002-0.267-0.049-0.532-0.149-0.779s-0.249-0.473-0.436-0.663c-0.187-0.19-0.411-0.341-0.656-0.445s-0.51-0.158-0.777-0.16h-0.064c-0.543 0-1.064 0.216-1.447 0.6s-0.6 0.905-0.6 1.448c0 0.543 0.216 1.064 0.6 1.447s0.905 0.6 1.447 0.6c0.267 0.007 0.533-0.040 0.782-0.136s0.477-0.24 0.67-0.425c0.193-0.184 0.348-0.405 0.457-0.649s0.167-0.507 0.174-0.774v-0.064zM24.471 17.609c0-3.395-2.16-4.715-4.306-4.715-0.703-0.035-1.402 0.114-2.029 0.434s-1.159 0.798-1.543 1.387h-0.099v-1.539h-3.318v11.294h3.529v-6.007c-0.051-0.615 0.143-1.226 0.539-1.699s0.964-0.771 1.578-0.828h0.134c1.122 0 1.955 0.706 1.955 2.485v6.049h3.529l0.028-6.861z"></path>
</symbol>
<symbol id="icon-messenger" viewBox="0 0 32 32">
<path d="M4 15.64c0-6.688 5.24-11.64 12-11.64s12 4.952 12 11.64-5.24 11.64-12 11.64c-1.214 0-2.379-0.16-3.474-0.461-0.213-0.058-0.439-0.042-0.641 0.047l-2.382 1.051c-0.623 0.275-1.326-0.168-1.347-0.849l-0.065-2.134c-0.008-0.263-0.126-0.509-0.322-0.684-2.335-2.088-3.769-5.111-3.769-8.61zM12.319 13.452l-3.525 5.593c-0.338 0.537 0.321 1.142 0.827 0.758l3.786-2.874c0.256-0.194 0.61-0.195 0.867-0.003l2.804 2.103c0.841 0.631 2.042 0.409 2.603-0.48l3.525-5.593c0.338-0.537-0.322-1.142-0.827-0.758l-3.786 2.874c-0.256 0.194-0.61 0.195-0.867 0.002l-2.804-2.103c-0.841-0.631-2.042-0.409-2.603 0.48z"></path>
</symbol>
<symbol id="icon-whatsapp" viewBox="0 0 32 32">
<path d="M16.050 4.387c-6.587 0-11.947 5.163-11.95 11.508-0.002 2.029 0.55 4.010 1.595 5.754l-1.695 5.964 6.335-1.6c1.762 0.922 3.722 1.403 5.71 1.401h0.005c6.587 0 11.947-5.164 11.95-11.509 0.002-3.074-1.24-5.967-3.497-8.141s-5.256-3.376-8.453-3.376zM16.050 25.47h-0.004c-1.782 0-3.53-0.462-5.056-1.333l-0.364-0.207-3.758 0.949 1.003-3.53-0.236-0.362c-0.992-1.513-1.52-3.282-1.519-5.091 0.002-5.275 4.459-9.564 9.937-9.564 2.652 0.001 5.146 0.997 7.022 2.805s2.908 4.212 2.906 6.768c-0.002 5.275-4.458 9.566-9.933 9.566h0.001zM21.498 18.304c-0.299-0.143-1.767-0.839-2.041-0.936-0.273-0.095-0.472-0.145-0.671 0.143s-0.771 0.936-0.945 1.127c-0.175 0.192-0.349 0.215-0.648 0.072s-1.261-0.447-2.401-1.428c-0.888-0.762-1.487-1.703-1.661-1.992-0.174-0.287-0.019-0.443 0.131-0.586 0.134-0.128 0.299-0.335 0.447-0.503s0.198-0.288 0.299-0.48c0.099-0.191 0.050-0.36-0.026-0.503-0.075-0.145-0.671-1.56-0.921-2.135-0.242-0.56-0.488-0.485-0.671-0.495-0.174-0.008-0.372-0.010-0.573-0.010-0.197 0-0.522 0.072-0.796 0.36s-1.045 0.983-1.045 2.399c0 1.416 1.070 2.783 1.219 2.975s2.106 3.097 5.101 4.343c0.712 0.295 1.268 0.472 1.702 0.605 0.715 0.219 1.366 0.187 1.881 0.114 0.573-0.083 1.767-0.695 2.014-1.366 0.249-0.671 0.249-1.247 0.175-1.367-0.073-0.12-0.273-0.192-0.571-0.337z"></path>
</symbol>
<symbol id="icon-link" viewBox="0 0 32 32">
<path  d="M16 0c-8.839 0-16 7.161-16 16s7.161 16 16 16c8.839 0 16-7.161 16-16s-7.165-16-16-16zM10.005 26.832h-4.497v-14.47h4.497v14.47zM7.759 10.382c-1.44 0-2.611-1.166-2.611-2.611s1.166-2.607 2.611-2.607c1.444 0 2.607 1.166 2.607 2.607s-1.166 2.611-2.607 2.611zM26.852 26.832h-4.493v-7.038c0-1.678-0.033-3.838-2.337-3.838s-2.701 1.829-2.701 3.716v7.157h-4.493v-14.465h4.313v1.977h0.061c0.597-1.138 2.067-2.337 4.256-2.337 4.555 0 5.397 2.995 5.397 6.895v7.939l-0.004-0.004z"></path>
</symbol>
<symbol id="icon-website" viewBox="0 0 32 32">
<path  d="M16 29.333c-1.822 0-3.544-0.35-5.167-1.050s-3.039-1.656-4.25-2.867c-1.211-1.211-2.167-2.628-2.867-4.25s-1.050-3.344-1.050-5.167c0-1.844 0.35-3.572 1.050-5.183s1.656-3.022 2.867-4.233c1.211-1.211 2.628-2.167 4.25-2.867s3.344-1.050 5.167-1.050c1.844 0 3.572 0.35 5.183 1.050s3.022 1.656 4.233 2.867c1.211 1.211 2.167 2.622 2.867 4.233s1.050 3.339 1.050 5.183c0 1.822-0.35 3.544-1.050 5.167s-1.656 3.039-2.867 4.25c-1.211 1.211-2.622 2.167-4.233 2.867s-3.339 1.050-5.183 1.050zM16 26.6c0.578-0.8 1.078-1.633 1.5-2.5s0.767-1.789 1.033-2.767h-5.067c0.267 0.978 0.611 1.9 1.033 2.767s0.922 1.7 1.5 2.5zM12.533 26.067c-0.4-0.733-0.75-1.494-1.050-2.283s-0.55-1.606-0.75-2.45h-3.933c0.644 1.111 1.45 2.078 2.417 2.9s2.072 1.433 3.317 1.833zM19.467 26.067c1.244-0.4 2.35-1.011 3.317-1.833s1.772-1.789 2.417-2.9h-3.933c-0.2 0.844-0.45 1.661-0.75 2.45s-0.65 1.55-1.050 2.283zM5.667 18.667h4.533c-0.067-0.444-0.117-0.883-0.15-1.317s-0.050-0.883-0.050-1.35c0-0.467 0.017-0.917 0.050-1.35s0.083-0.872 0.15-1.317h-4.533c-0.111 0.444-0.194 0.883-0.25 1.317s-0.083 0.883-0.083 1.35c0 0.467 0.028 0.917 0.083 1.35s0.139 0.872 0.25 1.317zM12.867 18.667h6.267c0.067-0.444 0.117-0.883 0.15-1.317s0.050-0.883 0.050-1.35c0-0.467-0.017-0.917-0.050-1.35s-0.083-0.872-0.15-1.317h-6.267c-0.067 0.444-0.117 0.883-0.15 1.317s-0.050 0.883-0.050 1.35c0 0.467 0.017 0.917 0.050 1.35s0.083 0.872 0.15 1.317zM21.8 18.667h4.533c0.111-0.444 0.194-0.883 0.25-1.317s0.083-0.883 0.083-1.35c0-0.467-0.028-0.917-0.083-1.35s-0.139-0.872-0.25-1.317h-4.533c0.067 0.444 0.117 0.883 0.15 1.317s0.050 0.883 0.050 1.35c0 0.467-0.017 0.917-0.050 1.35s-0.083 0.872-0.15 1.317zM21.267 10.667h3.933c-0.644-1.111-1.45-2.078-2.417-2.9s-2.072-1.433-3.317-1.833c0.4 0.733 0.75 1.494 1.050 2.283s0.55 1.606 0.75 2.45zM13.467 10.667h5.067c-0.267-0.978-0.611-1.9-1.033-2.767s-0.922-1.7-1.5-2.5c-0.578 0.8-1.078 1.633-1.5 2.5s-0.767 1.789-1.033 2.767zM6.8 10.667h3.933c0.2-0.844 0.45-1.661 0.75-2.45s0.65-1.55 1.050-2.283c-1.244 0.4-2.35 1.011-3.317 1.833s-1.772 1.789-2.417 2.9z"></path>
</symbol>
<symbol id="icon-milestone-done" viewBox="0 0 32 32">
<path  d="M12.6 23.535c-0.149 0-0.289-0.026-0.418-0.079s-0.255-0.139-0.377-0.261l-6.033-6.033c-0.227-0.227-0.34-0.503-0.34-0.829s0.113-0.602 0.34-0.829c0.227-0.227 0.493-0.34 0.8-0.34s0.576 0.113 0.808 0.34l5.222 5.222 11.996-11.988c0.227-0.227 0.497-0.341 0.812-0.344s0.586 0.112 0.812 0.344c0.227 0.227 0.34 0.499 0.34 0.816s-0.113 0.59-0.34 0.816l-12.825 12.825c-0.122 0.122-0.248 0.209-0.377 0.261s-0.269 0.079-0.418 0.079z"></path>
</symbol>
<symbol id="icon-milestone-process" viewBox="0 0 32 32">
<path d="M3.204 24.093c-0.282-0.132-0.468-0.344-0.559-0.634s-0.070-0.576 0.062-0.858l7.241-14.233c0.127-0.282 0.34-0.461 0.638-0.538s0.589-0.052 0.87 0.075c0.282 0.132 0.467 0.344 0.555 0.634s0.069 0.573-0.058 0.85l-7.233 14.241c-0.132 0.282-0.348 0.461-0.646 0.538s-0.589 0.052-0.87-0.075zM12.004 24.093c-0.282-0.132-0.468-0.344-0.559-0.634s-0.070-0.576 0.062-0.858l7.241-14.233c0.127-0.282 0.34-0.461 0.638-0.538s0.589-0.052 0.87 0.075c0.282 0.132 0.467 0.344 0.555 0.634s0.069 0.573-0.058 0.85l-7.233 14.241c-0.132 0.282-0.348 0.461-0.646 0.538s-0.589 0.052-0.87-0.075zM20.804 24.093c-0.282-0.132-0.468-0.344-0.559-0.634s-0.070-0.576 0.062-0.858l7.241-14.233c0.127-0.282 0.34-0.461 0.638-0.538s0.589-0.052 0.87 0.075c0.282 0.132 0.467 0.344 0.555 0.634s0.069 0.573-0.058 0.85l-7.233 14.241c-0.132 0.282-0.348 0.461-0.646 0.538s-0.589 0.052-0.87-0.075z"></path>
</symbol>
<symbol id="icon-favorite" viewBox="0 0 32 32">
<path  d="M14.133 26.3l-2.067-1.867c-2.489-2.244-4.678-4.422-6.567-6.533s-2.833-4.444-2.833-7c0-2.089 0.706-3.844 2.117-5.267s3.172-2.133 5.283-2.133c1.2 0 2.311 0.25 3.333 0.75s1.889 1.139 2.6 1.917c0.689-0.778 1.544-1.417 2.567-1.917s2.133-0.75 3.333-0.75c2.111 0 3.878 0.711 5.3 2.133s2.133 3.178 2.133 5.267c0 2.556-0.961 4.9-2.883 7.033s-4.194 4.389-6.817 6.767l-1.767 1.6c-0.511 0.489-1.128 0.728-1.85 0.717s-1.35-0.25-1.883-0.717z"></path>
</symbol>
<symbol id="icon-mode_comment" viewBox="0 0 32 32">
<path d="M29.333 29.335l-5.333-5.333h-18.533c-0.778 0-1.439-0.272-1.983-0.817s-0.817-1.206-0.817-1.983v-15.733c0-0.778 0.272-1.439 0.817-1.983s1.206-0.817 1.983-0.817h21.067c0.778 0 1.439 0.272 1.983 0.817s0.817 1.206 0.817 1.983v23.867z"></path>
</symbol>
<symbol id="icon-reply" viewBox="0 0 34 32">
<path  d="M0.559 10.624l11.846-10.23c1.037-0.896 2.671-0.169 2.671 1.223v5.388c10.812 0.124 19.385 2.291 19.385 12.537 0 4.135-2.664 8.232-5.609 10.374-0.919 0.668-2.229-0.171-1.89-1.254 3.052-9.76-1.448-12.352-11.886-12.502v5.917c0 1.393-1.636 2.117-2.671 1.223l-11.846-10.231c-0.745-0.644-0.746-1.801 0-2.445z"></path>
</symbol>
<symbol id="icon-Arrow-up" viewBox="0 0 44 32">
<path  d="M17.225 18.254c-2.307 2.31-4.513 4.523-6.722 6.737-1.891 1.891-3.781 3.778-5.672 5.663-0.618 0.614-1.365 0.804-2.205 0.556s-1.342-0.844-1.527-1.687c-0.179-0.82 0.134-1.493 0.708-2.072 2.622-2.621 5.242-5.242 7.86-7.864 1.941-1.94 3.883-3.879 5.827-5.817 1.066-1.058 2.299-1.063 3.361-0.016 1.475 1.454 2.939 2.919 4.395 4.396 0.165 0.166 0.268 0.392 0.385 0.566l12.255-12.266c-0.175-0.011-0.342-0.029-0.511-0.031-1.418 0-2.836 0.014-4.254-0.009-0.937-0.014-1.642-0.469-2.028-1.321-0.368-0.814-0.245-1.603 0.327-2.297 0.205-0.257 0.467-0.464 0.765-0.604s0.624-0.21 0.953-0.204c3.394-0.008 6.797-0.014 10.196 0.003 1.284 0.007 2.234 0.982 2.238 2.263 0.011 3.381 0.011 6.762 0 10.144 0 1.285-1.007 2.291-2.226 2.28s-2.16-0.971-2.182-2.259c-0.021-1.381-0.006-2.763-0.006-4.145v-0.573l-0.198-0.129c-0.124 0.194-0.261 0.379-0.413 0.553-4.34 4.348-8.682 8.692-13.029 13.033-1.131 1.129-2.354 1.131-3.48 0.010-1.48-1.473-2.957-2.951-4.432-4.434-0.127-0.128-0.228-0.285-0.385-0.478z"></path>
</symbol>
<symbol id="icon-Arrow-down" viewBox="0 0 47 32">
<path  d="M28.301 15.041c2.307-2.31 4.513-4.523 6.722-6.737 1.891-1.891 3.781-3.778 5.672-5.663 0.618-0.614 1.365-0.804 2.206-0.556s1.341 0.844 1.527 1.687c0.179 0.82-0.134 1.493-0.708 2.072-2.622 2.621-5.242 5.242-7.859 7.864-1.941 1.94-3.883 3.879-5.827 5.817-1.066 1.058-2.299 1.063-3.36 0.016-1.475-1.454-2.94-2.919-4.395-4.396-0.165-0.166-0.268-0.392-0.385-0.566l-12.255 12.266c0.175 0.011 0.342 0.029 0.512 0.031 1.418 0 2.836-0.014 4.254 0.009 0.937 0.014 1.643 0.469 2.028 1.321 0.368 0.814 0.245 1.603-0.327 2.297-0.205 0.257-0.467 0.463-0.765 0.604s-0.624 0.209-0.953 0.203c-3.394 0.008-6.797 0.014-10.196-0.003-1.284-0.006-2.234-0.982-2.238-2.263-0.011-3.381-0.011-6.762 0-10.144 0-1.285 1.007-2.291 2.226-2.28s2.16 0.971 2.181 2.259c0.021 1.381 0.005 2.763 0.005 4.145v0.573l0.199 0.129c0.123-0.194 0.261-0.379 0.412-0.553 4.34-4.348 8.683-8.692 13.029-13.033 1.131-1.129 2.354-1.131 3.481-0.010 1.48 1.473 2.957 2.951 4.432 4.434 0.127 0.128 0.228 0.285 0.385 0.478z"></path>
</symbol>
<symbol id="icon-growth-indicator-up" viewBox="0 0 32 32">
<path fill="#e1f6e3" style="fill: var(--color1, #e1f6e3)" d="M31.567 16.504c0 8.359-6.776 15.135-15.135 15.135s-15.135-6.776-15.135-15.135c0-8.359 6.776-15.135 15.135-15.135s15.135 6.776 15.135 15.135z"></path>
<path  d="M19.83 14.887l-0.406 0.406c-2.173 2.173-4.346 4.347-6.52 6.52-0.44 0.44-0.959 0.536-1.478 0.296-0.5-0.235-0.774-0.665-0.701-1.185 0.065-0.376 0.243-0.723 0.509-0.997 2.102-2.14 4.23-4.252 6.351-6.372l0.402-0.402c-0.13-0.022-0.26-0.037-0.392-0.046-0.85-0.004-1.701 0.004-2.551-0.006-0.673-0.008-1.137-0.471-1.146-1.114-0.009-0.702 0.412-1.173 1.116-1.177 1.956-0.013 3.91-0.014 5.864-0.004 0.79 0.004 1.235 0.431 1.249 1.213 0.036 1.939 0.057 3.878 0.064 5.818 0.003 0.711-0.46 1.129-1.166 1.123-0.667-0.006-1.105-0.435-1.125-1.125-0.022-0.82-0.023-1.64-0.035-2.461-0.003-0.129-0.019-0.256-0.034-0.486z"></path>
</symbol>
<symbol id="icon-growth-indicator-down" viewBox="0 0 32 32">
<path fill="#EFC0C9"  d="M31.567 16.504c0 8.359-6.776 15.135-15.135 15.135s-15.135-6.776-15.135-15.135c0-8.359 6.776-15.135 15.135-15.135s15.135 6.776 15.135 15.135z"></path>
<path  d="M18.045 19.898l-0.406-0.406c-2.173-2.173-4.346-4.346-6.52-6.52-0.44-0.44-0.536-0.959-0.296-1.478 0.235-0.5 0.665-0.774 1.185-0.701 0.376 0.065 0.723 0.243 0.997 0.509 2.14 2.102 4.252 4.23 6.372 6.351l0.402 0.402c0.022-0.13 0.037-0.26 0.046-0.392 0.004-0.85-0.004-1.701 0.006-2.551 0.008-0.673 0.471-1.137 1.114-1.146 0.702-0.009 1.173 0.412 1.177 1.116 0.013 1.955 0.014 3.91 0.004 5.863-0.004 0.79-0.431 1.235-1.213 1.249-1.939 0.036-3.879 0.057-5.818 0.064-0.711 0.003-1.129-0.46-1.123-1.166 0.006-0.667 0.435-1.105 1.125-1.125 0.82-0.021 1.64-0.023 2.461-0.035 0.129-0.003 0.256-0.019 0.486-0.034z"></path>
</symbol>
<symbol id="icon-draft" viewBox="0 0 32 32">
<path d="M8 29.333c-0.733 0-1.361-0.261-1.883-0.783s-0.783-1.15-0.783-1.883v-21.333c0-0.733 0.261-1.361 0.783-1.883s1.15-0.783 1.883-0.783h10.667l8 8v16c0 0.733-0.261 1.361-0.783 1.883s-1.15 0.783-1.883 0.783h-16zM17.333 12v-6.667h-9.333v21.333h16v-14.667h-6.667z"></path>
</symbol>
<symbol id="icon-link-url" viewBox="0 0 32 32">
<path  d="M9.333 22.667c-1.844 0-3.417-0.65-4.717-1.95s-1.95-2.872-1.95-4.717c0-1.844 0.65-3.417 1.95-4.717s2.872-1.95 4.717-1.95h4c0.378 0 0.694 0.128 0.95 0.383s0.383 0.572 0.383 0.95c0 0.378-0.128 0.694-0.383 0.95s-0.572 0.383-0.95 0.383h-4c-1.111 0-2.056 0.389-2.833 1.167s-1.167 1.722-1.167 2.833 0.389 2.056 1.167 2.833c0.778 0.778 1.722 1.167 2.833 1.167h4c0.378 0 0.694 0.128 0.95 0.383s0.383 0.572 0.383 0.95c0 0.378-0.128 0.694-0.383 0.95s-0.572 0.383-0.95 0.383h-4zM12 17.333c-0.378 0-0.694-0.128-0.95-0.383s-0.383-0.572-0.383-0.95c0-0.378 0.128-0.694 0.383-0.95s0.572-0.383 0.95-0.383h8c0.378 0 0.694 0.128 0.95 0.383s0.383 0.572 0.383 0.95c0 0.378-0.128 0.694-0.383 0.95s-0.572 0.383-0.95 0.383h-8zM18.667 22.667c-0.378 0-0.694-0.128-0.95-0.383s-0.383-0.572-0.383-0.95c0-0.378 0.128-0.694 0.383-0.95s0.572-0.383 0.95-0.383h4c1.111 0 2.056-0.389 2.833-1.167s1.167-1.722 1.167-2.833c0-1.111-0.389-2.056-1.167-2.833s-1.722-1.167-2.833-1.167h-4c-0.378 0-0.694-0.128-0.95-0.383s-0.383-0.572-0.383-0.95c0-0.378 0.128-0.694 0.383-0.95s0.572-0.383 0.95-0.383h4c1.844 0 3.417 0.65 4.717 1.95s1.95 2.872 1.95 4.717c0 1.844-0.65 3.417-1.95 4.717s-2.872 1.95-4.717 1.95h-4z"></path>
</symbol>
<symbol id="icon-analytics" viewBox="0 0 32 32">
<path  d="M10.667 16c-0.378 0-0.694 0.128-0.95 0.383s-0.383 0.572-0.383 0.95v4c0 0.378 0.128 0.694 0.383 0.95s0.572 0.383 0.95 0.383c0.378 0 0.694-0.128 0.95-0.383s0.383-0.572 0.383-0.95v-4c0-0.378-0.128-0.694-0.383-0.95s-0.572-0.383-0.95-0.383zM21.333 9.333c-0.378 0-0.694 0.128-0.95 0.383s-0.383 0.572-0.383 0.95v10.667c0 0.378 0.128 0.694 0.383 0.95s0.572 0.383 0.95 0.383c0.378 0 0.694-0.128 0.95-0.383s0.383-0.572 0.383-0.95v-10.667c0-0.378-0.128-0.694-0.383-0.95s-0.572-0.383-0.95-0.383zM16 18.667c-0.378 0-0.694 0.128-0.95 0.383s-0.383 0.572-0.383 0.95v1.333c0 0.378 0.128 0.694 0.383 0.95s0.572 0.383 0.95 0.383c0.378 0 0.694-0.128 0.95-0.383s0.383-0.572 0.383-0.95v-1.333c0-0.378-0.128-0.694-0.383-0.95s-0.572-0.383-0.95-0.383zM6.667 28c-0.733 0-1.361-0.261-1.883-0.783s-0.783-1.15-0.783-1.883v-18.667c0-0.733 0.261-1.361 0.783-1.883s1.15-0.783 1.883-0.783h18.667c0.733 0 1.361 0.261 1.883 0.783s0.783 1.15 0.783 1.883v18.667c0 0.733-0.261 1.361-0.783 1.883s-1.15 0.783-1.883 0.783h-18.667zM6.667 25.333h18.667v-18.667h-18.667v18.667zM16 16c0.378 0 0.694-0.128 0.95-0.383s0.383-0.572 0.383-0.95c0-0.378-0.128-0.694-0.383-0.95s-0.572-0.383-0.95-0.383c-0.378 0-0.694 0.128-0.95 0.383s-0.383 0.572-0.383 0.95c0 0.378 0.128 0.694 0.383 0.95s0.572 0.383 0.95 0.383z"></path>
</symbol>
<symbol id="icon-suspenduser" viewBox="0 0 32 32">
<path d="M10.8 17.2h10.4c0.34 0 0.625-0.114 0.855-0.343s0.345-0.512 0.345-0.85c0-0.338-0.115-0.624-0.345-0.857s-0.515-0.35-0.855-0.35h-10.4c-0.34 0-0.625 0.114-0.855 0.343s-0.345 0.512-0.345 0.85c0 0.338 0.115 0.624 0.345 0.857s0.515 0.35 0.855 0.35zM16.009 28.8c-1.762 0-3.42-0.333-4.976-1s-2.917-1.583-4.083-2.75c-1.167-1.167-2.083-2.527-2.75-4.082s-1-3.216-1-4.983 0.333-3.424 1-4.968c0.667-1.544 1.583-2.9 2.75-4.067s2.527-2.083 4.082-2.75c1.555-0.667 3.216-1 4.983-1s3.424 0.333 4.968 1 2.9 1.583 4.067 2.75c1.167 1.167 2.083 2.525 2.75 4.074s1 3.205 1 4.967-0.333 3.42-1 4.976c-0.667 1.556-1.583 2.917-2.75 4.083s-2.525 2.083-4.074 2.75-3.205 1-4.967 1zM16 26.4c2.889 0 5.344-1.011 7.367-3.033s3.033-4.478 3.033-7.367c0-2.889-1.011-5.344-3.033-7.367s-4.478-3.033-7.367-3.033c-2.889 0-5.344 1.011-7.367 3.033s-3.033 4.478-3.033 7.367c0 2.889 1.011 5.344 3.033 7.367s4.478 3.033 7.367 3.033z"></path>
</symbol>
<symbol id="icon-person_remove" viewBox="0 0 32 32">
<path d="M22.661 14.9c-0.374 0-0.7-0.139-0.977-0.417s-0.417-0.606-0.417-0.983c0-0.378 0.139-0.706 0.417-0.983s0.604-0.417 0.977-0.417h5.278c0.374 0 0.7 0.139 0.977 0.417s0.417 0.606 0.417 0.983c0 0.378-0.139 0.706-0.417 0.983s-0.604 0.417-0.977 0.417h-5.278zM12.067 15.967c-1.511 0-2.778-0.511-3.8-1.533s-1.533-2.289-1.533-3.8c0-1.511 0.511-2.778 1.533-3.8s2.289-1.533 3.8-1.533c1.511 0 2.778 0.511 3.8 1.533s1.533 2.289 1.533 3.8-0.511 2.778-1.533 3.8c-1.022 1.022-2.289 1.533-3.8 1.533zM2.734 26.667c-0.378 0-0.707-0.139-0.984-0.417s-0.417-0.608-0.417-0.992v-2.439c0-0.768 0.2-1.463 0.6-2.085s0.922-1.093 1.567-1.412c1.378-0.659 2.789-1.155 4.233-1.488s2.9-0.5 4.367-0.5 2.928 0.172 4.383 0.517c1.456 0.344 2.865 0.839 4.227 1.483 0.637 0.312 1.15 0.778 1.539 1.401s0.583 1.317 0.583 2.085v2.439c0 0.384-0.139 0.715-0.417 0.992s-0.606 0.417-0.984 0.417h-18.698zM4.133 23.867h15.9v-1.042c0-0.239-0.055-0.436-0.165-0.593s-0.255-0.278-0.435-0.365c-1.178-0.533-2.389-0.956-3.633-1.267s-2.478-0.467-3.7-0.467c-1.222 0-2.456 0.15-3.7 0.45s-2.456 0.728-3.633 1.283c-0.2 0.067-0.356 0.183-0.467 0.35s-0.167 0.369-0.167 0.608v1.042zM12.067 13.167c0.733 0 1.339-0.239 1.817-0.717s0.717-1.083 0.717-1.817c0-0.733-0.239-1.339-0.717-1.817s-1.083-0.717-1.817-0.717c-0.733 0-1.339 0.239-1.817 0.717s-0.717 1.083-0.717 1.817c0 0.733 0.239 1.339 0.717 1.817s1.083 0.717 1.817 0.717z"></path>
</symbol>
<symbol id="icon-person_add" viewBox="0 0 32 32">
<path d="M22.928 14.4c-0.374 0-0.7-0.139-0.977-0.417s-0.417-0.606-0.417-0.983 0.139-0.706 0.417-0.983c0.278-0.278 0.604-0.417 0.977-0.417h5.278c0.374 0 0.7 0.139 0.978 0.417s0.417 0.606 0.417 0.983c0 0.378-0.139 0.706-0.417 0.983s-0.604 0.417-0.978 0.417h-5.278zM12.333 15.467c-1.511 0-2.778-0.511-3.8-1.533s-1.533-2.289-1.533-3.8c0-1.511 0.511-2.778 1.533-3.8s2.289-1.533 3.8-1.533c1.511 0 2.778 0.511 3.8 1.533s1.533 2.289 1.533 3.8-0.511 2.778-1.533 3.8c-1.022 1.022-2.289 1.533-3.8 1.533zM3.001 26.167c-0.378 0-0.707-0.139-0.984-0.417s-0.417-0.609-0.417-0.993v-2.439c0-0.768 0.2-1.463 0.6-2.085s0.922-1.093 1.567-1.412c1.378-0.659 2.789-1.155 4.233-1.488s2.9-0.5 4.367-0.5 2.928 0.172 4.383 0.517c1.456 0.344 2.865 0.839 4.227 1.483 0.637 0.312 1.151 0.778 1.539 1.401s0.583 1.317 0.583 2.085v2.439c0 0.384-0.139 0.715-0.417 0.993s-0.606 0.417-0.984 0.417h-18.698zM4.4 23.367h15.9v-1.042c0-0.239-0.055-0.436-0.165-0.593s-0.255-0.278-0.435-0.365c-1.178-0.533-2.389-0.956-3.633-1.267s-2.478-0.467-3.7-0.467-2.456 0.15-3.7 0.45c-1.244 0.3-2.456 0.728-3.633 1.283-0.2 0.067-0.356 0.183-0.467 0.35s-0.167 0.369-0.167 0.608v1.042zM12.333 12.667c0.733 0 1.339-0.239 1.817-0.717s0.717-1.083 0.717-1.817c0-0.733-0.239-1.339-0.717-1.817s-1.083-0.717-1.817-0.717c-0.733 0-1.339 0.239-1.817 0.717s-0.717 1.083-0.717 1.817c0 0.733 0.239 1.339 0.717 1.817s1.083 0.717 1.817 0.717z"></path>
<path fill="none" stroke="#1c1b1f" stroke-width="3.2" stroke-miterlimit="4" stroke-linecap="round" stroke-linejoin="miter" style="stroke: var(--color10, #1c1b1f)" d="M25.6 9.6v6.4"></path>
<path fill="none" stroke="#1c1b1f" stroke-width="3.2" stroke-miterlimit="4" stroke-linecap="round" stroke-linejoin="miter" style="stroke: var(--color10, #1c1b1f)" d="M28.8 12.8h-6.4"></path>
</symbol>
</defs>
</svg>

